<svg width="45" height="25" viewBox="0 0 45 25" fill="none" xmlns="http://www.w3.org/2000/svg">
<path d="M24.6164 12.4189C30.0214 12.3752 35.4263 12.3401 40.8312 12.281C41.9085 12.2689 42.9873 12.1844 44.0602 12.0789C44.2378 12.0596 44.4053 11.9872 44.541 11.8711C44.6767 11.7551 44.7742 11.6008 44.8208 11.4284C44.9089 11.1524 44.6025 10.7609 44.2367 10.7034C43.8819 10.6476 43.5288 10.561 43.1722 10.5396C40.8948 10.4016 38.6177 10.2062 36.3382 10.165C31.6549 10.0809 26.9703 10.0596 22.2861 10.0543C17.8419 10.0491 13.3976 10.1045 8.95345 10.115C8.23987 10.1167 7.52587 10.0269 6.81347 9.96319C6.7662 9.95153 6.72262 9.92817 6.68673 9.89528C6.65084 9.86239 6.6238 9.82102 6.60807 9.77494C6.59526 9.66495 6.6278 9.47924 6.70093 9.43982C8.0666 8.69745 9.41551 7.91645 10.8198 7.25392C14.0867 5.71262 17.1514 3.82261 20.2139 1.92629C20.7172 1.61463 21.2446 1.29806 21.4477 0.679686C21.4845 0.567128 21.5421 0.374344 21.4952 0.336694C21.3272 0.18006 21.123 0.0674236 20.9009 0.00886117C20.6643 -0.0190397 20.4247 0.0192492 20.2086 0.119454C19.4433 0.466193 18.6836 0.827922 17.9391 1.21665C12.6168 3.9949 7.30531 6.78971 1.98023 9.56047C-0.0284541 10.6052 -0.982933 11.6184 1.42827 13.9155C2.12294 14.5776 2.82568 15.2388 3.58106 15.8276C7.08433 18.561 10.6004 21.2778 14.1293 23.9778C14.6145 24.326 15.1261 24.6358 15.6596 24.9043C16.0075 25.0932 16.3558 24.981 16.6562 24.7547C16.9868 24.5053 17.192 23.7805 17.0781 23.4618C16.8248 22.7541 16.3201 22.2349 15.7782 21.7647C13.6916 19.9548 11.5939 18.1578 9.4851 16.3738C8.1147 15.208 6.72989 14.0594 5.36166 12.8912C5.29405 12.8335 5.29071 12.6547 5.31811 12.5471C5.33609 12.5005 5.3651 12.459 5.40267 12.4261C5.44023 12.3932 5.48522 12.3699 5.53376 12.3582C6.24872 12.3113 6.96526 12.2516 7.68101 12.2553C13.3263 12.2852 18.9717 12.3223 24.617 12.3669L24.6164 12.4189Z" fill="#101010"/>
</svg>
