<svg width="32" height="30" viewBox="0 0 32 30" fill="none" xmlns="http://www.w3.org/2000/svg">
<g clip-path="url(#clip0_41_264)">
<path d="M7.67049 2.36586C7.67049 1.87033 7.66013 1.4161 7.67312 0.962426C7.68912 0.402952 7.83569 0.158323 8.13563 0.138323C8.43558 0.118323 8.60156 0.332447 8.68671 0.898499C8.75232 1.32889 8.78563 1.76387 8.84415 2.29782L22.4309 2.18075C22.4587 1.89549 22.4784 1.63901 22.5096 1.38401C22.5419 1.12428 22.5741 0.863636 22.6277 0.607715C22.6926 0.29732 22.8779 0.0952167 23.2129 0.092322C23.5767 0.0890325 23.7855 0.306522 23.8436 0.640995C23.911 1.02836 23.9336 1.4236 23.9748 1.81545C23.9861 1.9215 23.9957 2.0278 24.0122 2.19701C24.6534 2.2303 25.2775 2.28071 25.9016 2.29189C28.6578 2.3411 30.2112 4.0407 30.7631 6.43175C31.041 7.63557 31.1014 8.89951 31.1658 10.1411C31.3155 13.0278 31.4245 15.9174 31.5172 18.806C31.5696 20.4244 31.5573 22.0457 31.571 23.6658C31.5988 26.9411 29.1203 28.6936 26.9419 29.2874C26.1848 29.5004 25.4051 29.6219 24.6194 29.6492C20.0333 29.7617 15.446 29.8873 10.859 29.8904C8.41262 29.8923 5.98234 29.5025 3.5892 28.9833C1.75226 28.5849 0.33663 26.876 0.117246 24.8991C0.049845 24.2457 0.0220199 23.5888 0.0339267 22.932C0.0580693 20.6763 0.126437 18.4211 0.136146 16.1654C0.147561 13.5378 0.121838 10.9099 0.0967768 8.28228C0.0899539 7.56162 0.0435097 6.86122 0.304355 6.14964C1.03205 4.16491 2.4583 3.06834 4.48865 2.72229C5.30464 2.58308 6.13704 2.54062 6.96183 2.45246C7.17596 2.42957 7.38734 2.40059 7.67049 2.36586ZM29.4827 9.93325C24.8185 10.0863 20.2587 10.249 15.6979 10.382C11.1187 10.5161 6.53774 10.6216 1.92348 10.7406C1.91876 10.7962 1.90249 10.9011 1.90235 11.006C1.89798 14.5107 1.89519 18.0154 1.89397 21.5202C1.89397 22.4613 1.88911 23.4036 1.93202 24.3432C1.95963 25.0052 2.21114 25.6379 2.64519 26.1375C3.07923 26.637 3.66991 26.9735 4.32003 27.0915C6.97047 27.5419 9.61908 27.9599 12.3248 27.8867C14.7925 27.8198 17.2625 27.8432 19.7308 27.7931C21.6954 27.7536 23.6596 27.6767 25.6222 27.5874C26.4782 27.5428 27.3051 27.2604 28.0102 26.7716C28.9621 26.1286 29.6018 25.2866 29.6226 24.0742C29.6388 23.1335 29.6994 22.1927 29.6848 21.2523C29.6293 17.6828 29.551 14.1137 29.4822 10.5446C29.4791 10.329 29.4831 10.1135 29.4831 9.93325H29.4827ZM1.74806 9.10741C10.9846 8.61267 20.0747 8.29047 29.2214 8.07205C29.1689 7.60561 29.1618 7.16413 29.0639 6.744C28.761 5.44966 28.1943 4.34167 26.787 3.9572C25.8941 3.71325 24.9786 3.78374 24.0316 3.80545C24.0105 4.01413 23.997 4.18464 23.9748 4.35399C23.9566 4.52786 23.9286 4.70059 23.8914 4.87138C23.7579 5.41428 23.4846 5.66083 23.0636 5.63149C22.6394 5.60228 22.397 5.31718 22.3587 4.75837C22.3368 4.43942 22.3548 4.1177 22.3548 3.81309H8.94728C8.94728 4.12428 8.95319 4.36036 8.94584 4.59588C8.94562 4.92355 8.92809 5.25093 8.89336 5.57675C8.88126 5.73262 8.81072 5.87812 8.69596 5.98395C8.58121 6.08978 8.43074 6.14808 8.27483 6.14715C7.90744 6.16925 7.69882 5.93663 7.61747 5.62005C7.5698 5.36262 7.54918 5.10087 7.55593 4.83912C7.54412 4.54425 7.54414 4.24886 7.53771 3.87162C6.54458 3.9557 5.63607 3.94201 4.76916 4.12649C3.3273 4.43346 2.14169 5.15086 1.87521 6.76257C1.75253 7.50743 1.78795 8.27872 1.74806 9.10741Z" fill="#101010"/>
<path d="M8.06799 24.9369C7.87537 24.9454 7.50536 24.9764 7.13534 24.9751C6.33326 24.9733 5.84411 24.6093 5.69492 23.8304C5.51319 22.9272 5.55325 21.9934 5.81168 21.1092C5.85985 20.9179 5.95856 20.743 6.09739 20.6033C6.23624 20.4634 6.41008 20.3637 6.60066 20.3144C7.64855 20.0087 8.74255 19.8935 9.83092 19.9742C10.414 20.0147 10.8651 20.3404 10.9987 20.9533C11.201 21.8796 11.2553 22.8156 11.0038 23.7427C10.7927 24.5204 10.2933 24.9047 9.48704 24.9346C9.07399 24.9496 8.65974 24.9369 8.06799 24.9369ZM9.03107 21.803H7.32717L7.39934 22.9404H9.03107V21.803Z" fill="#101010"/>
<path d="M18.6058 21.9878C18.6058 22.2108 18.6089 22.3423 18.6058 22.4736C18.5696 23.8354 18.1327 24.3652 16.7887 24.5999C16.102 24.7198 15.406 24.7991 14.711 24.8578C13.9573 24.9216 13.4514 24.5852 13.3036 23.8763C13.1167 22.9759 13.0071 22.0624 13.2037 21.1408C13.342 20.4932 13.7238 20.062 14.3683 19.9657C15.2302 19.8309 16.0992 19.7462 16.971 19.7121C17.9443 19.6812 18.3674 20.0765 18.5192 21.0333C18.5726 21.378 18.5828 21.7299 18.6058 21.9878ZM16.6524 21.5749H14.7731C14.836 22.0659 14.8925 22.5045 14.9507 22.9587C15.3735 22.9174 15.7191 22.8866 16.064 22.8492C16.6886 22.7817 16.756 22.7045 16.7264 22.067C16.719 21.9187 16.6824 21.7719 16.6519 21.5749H16.6524Z" fill="#101010"/>
<path d="M23.1867 24.7131C22.773 24.7319 22.3586 24.7294 21.9451 24.7054C21.1957 24.6265 20.759 24.2297 20.714 23.4949C20.6606 22.6876 20.6704 21.8774 20.7434 21.0716C20.8221 20.2477 21.1948 19.9115 22.0198 19.8465C22.8231 19.7831 23.6329 19.7651 24.4388 19.7818C25.2894 19.7995 26.0907 20.3476 26.0278 21.4693C25.997 22.0152 25.9873 22.5644 25.9173 23.1056C25.7832 24.1399 25.2774 24.5939 24.2321 24.6727C23.884 24.699 23.5353 24.7172 23.1868 24.7391L23.1867 24.7131ZM22.3791 21.3728C22.4053 21.9328 22.4251 22.3573 22.4447 22.7666H23.972C24.0113 22.3435 24.0436 21.9815 24.082 21.5603L22.3791 21.3728Z" fill="#101010"/>
<path d="M23.1191 17.6101C22.7492 17.631 22.379 17.6721 22.0094 17.6685C21.0975 17.6598 20.6227 17.228 20.5773 16.3239C20.542 15.6254 20.542 14.9256 20.5773 14.2272C20.6221 13.3529 20.936 12.9785 21.7986 12.8881C22.7514 12.7871 23.7095 12.7454 24.6673 12.7633C25.5565 12.7814 26.0303 13.2825 26.0256 14.1921C26.0159 14.9335 25.9399 15.6726 25.7985 16.4004C25.6567 17.1581 25.2017 17.5104 24.4251 17.5651C23.9921 17.5958 23.5543 17.5706 23.1185 17.5706L23.1191 17.6101ZM22.2006 15.8372H24.0697C24.1202 15.3854 24.1651 14.9843 24.2221 14.4731L22.2006 14.3838V15.8372Z" fill="#101010"/>
<path d="M12.6797 15.2862C12.7234 14.852 12.7509 14.3925 12.8202 13.9388C12.8989 13.4257 13.1542 13.0294 13.6993 12.9183C14.6637 12.7219 15.6334 12.5551 16.6238 12.6731C17.4886 12.776 17.9578 13.1451 18.0777 14.01C18.1577 14.6574 18.1471 15.3129 18.0463 15.9574C17.9453 16.6548 17.4526 17.0737 16.7533 17.1654C15.9093 17.2759 15.0607 17.3638 14.2115 17.4162C13.3906 17.467 12.8937 17.047 12.7519 16.2282C12.7002 15.9283 12.7036 15.6186 12.6797 15.2862ZM16.2238 14.4211L14.2662 14.2912C14.2967 14.7795 14.3202 15.1559 14.3473 15.5869L16.2236 15.3978L16.2238 14.4211Z" fill="#101010"/>
</g>
<defs>
<clipPath id="clip0_41_264">
<rect width="31.6216" height="30" fill="white"/>
</clipPath>
</defs>
</svg>
