<svg width="33" height="32" viewBox="0 0 33 32" fill="none" xmlns="http://www.w3.org/2000/svg">
<path d="M18.0171 17.0473C17.2125 16.4848 15.92 16.7072 15.2794 17.4744C14.9076 17.9079 14.6257 18.4111 14.4501 18.9546C14.2744 19.498 14.2086 20.071 14.2563 20.6401C14.3279 21.6051 15.1901 22.4258 16.2024 22.5658C17.2892 22.7161 18.1135 22.2668 18.4659 21.2372C18.6652 20.6544 18.7364 20.0283 18.8241 19.6152C18.7613 18.959 18.7872 18.4935 18.6561 18.0773C18.5375 17.6988 18.326 17.2625 18.0171 17.0473ZM16.4499 17.881C17.0612 17.8333 17.4399 18.2942 17.5224 18.9806H15.6064C15.8064 18.549 15.841 17.928 16.4505 17.881H16.4499ZM16.6624 21.4509C16.1437 21.5198 15.6013 21.0951 15.3864 20.4577C16.0511 19.9837 16.7742 20.0464 17.575 20.2252C17.4481 20.8294 17.331 21.3621 16.663 21.4509H16.6624Z" fill="#101010"/>
<path d="M28.113 5.76953C27.8282 5.53446 27.5434 5.28998 27.2694 5.05357C26.6744 4.54179 26.0578 4.01123 25.4144 3.5599C20.4954 0.0970109 15.3844 0.0782056 10.2236 1.91442C5.55183 3.57602 2.55102 6.89921 1.30449 11.79C-0.0857691 17.2556 1.13256 22.0765 4.92723 26.1224C5.02528 26.2272 5.12602 26.3306 5.22677 26.4313C5.34094 26.5455 5.4578 26.6583 5.57601 26.7685C6.09161 27.2482 6.63912 27.6925 7.21477 28.0983C8.67622 29.1366 10.2156 29.8969 11.5494 30.4879C11.639 30.5282 11.7276 30.5672 11.8154 30.6048C12.1571 30.7255 12.5098 30.8123 12.8685 30.864C14.5153 31.1555 17.3804 31.3986 18.3086 31.2603C19.0506 31.1506 19.7864 31.0022 20.5129 30.8157C21.0072 30.6894 21.4876 30.5461 21.9542 30.3858C23.2022 29.9653 24.3933 29.3919 25.5004 28.6786C25.8988 28.4201 26.2839 28.1417 26.6542 27.8444C29.154 25.8376 30.8841 23.0289 31.7518 19.4572C32.0645 18.1405 32.2201 16.7915 32.2152 15.4382C32.222 12.2507 30.8801 8.54467 28.113 5.76953ZM9.31695 27.6666C8.54121 27.1468 7.80775 26.5665 7.12343 25.9311C7.15432 25.8559 7.18925 25.7793 7.22686 25.7027C7.55998 25.0204 7.89131 24.3371 8.22086 23.653C8.71114 22.6294 8.77025 21.5857 8.31757 20.5393C8.08788 20.0087 7.80982 19.4969 7.54789 18.9798C7.02268 17.9482 7.17179 17.0402 8.0234 16.2678C8.67085 15.6835 9.33306 15.1153 9.99394 14.5484C10.2021 14.3698 10.4318 14.218 10.7797 13.9601C10.6736 14.4396 10.6011 14.7392 10.5393 15.0414C10.2492 16.468 10.3029 17.8542 11.1384 19.1074C12.037 20.4574 12.1821 21.7818 11.3157 23.2392C10.6414 24.3743 10.6132 25.6248 11.1948 26.8445C11.4824 27.4375 11.6547 28.0798 11.7026 28.7372C10.6374 28.3777 9.7938 27.9828 9.31695 27.6666ZM22.2215 28.6861C22.1842 28.0971 21.9446 27.5391 21.5432 27.1064C20.5156 25.9647 20.4511 24.7047 21.0341 23.3655C21.3981 22.5273 21.8011 21.7039 22.2188 20.8899C22.6782 19.9966 22.8837 19.0806 22.5224 18.1148C22.3171 17.5963 22.0835 17.0896 21.8226 16.5969C21.2208 15.4027 21.4867 14.2946 22.059 13.1985C23.3633 13.9171 24.6058 14.5995 25.8429 15.2792C25.7905 15.4484 25.7704 15.5357 25.7354 15.6163C24.8919 17.5721 24.7361 19.4781 25.9826 21.3667C26.2029 21.7012 26.1881 22.2748 26.1075 22.706C25.9683 23.339 25.7658 23.9564 25.503 24.5489C25.1692 25.3244 25.0198 26.1667 25.0665 27.0097C24.1708 27.6535 23.2185 28.2147 22.2215 28.6866V28.6861ZM30.1668 19.7079C29.559 22.0038 28.3275 24.0866 26.6085 25.7256C26.6314 25.649 26.6556 25.5724 26.6838 25.4959C26.9336 24.8028 27.1418 24.0949 27.3594 23.391C27.6522 22.4454 27.6348 21.5132 27.0182 20.7045C25.8966 19.2337 26.0202 17.6715 26.6018 16.065C26.6636 15.8944 26.8718 15.7735 27.0196 15.6378C27.2305 15.4404 27.5945 15.2698 27.624 15.0522C27.6563 14.8131 27.4225 14.496 27.2291 14.2811C27.076 14.1105 26.81 14.0394 26.5911 13.9279C25.5366 13.3906 24.4795 12.8586 23.4277 12.3146C23.208 12.184 22.9951 12.0423 22.7897 11.8901C23.8979 10.743 24.9443 9.67247 25.9732 8.58444C26.1921 8.35206 26.6824 8.09548 26.2969 7.72474C25.9517 7.39162 25.6615 7.8255 25.3983 8.03773C25.1551 8.23384 24.9335 8.45816 24.7011 8.6677C23.7891 9.49111 22.8864 10.3266 21.9555 11.1312C21.5539 11.4778 21.155 11.7787 21.3202 12.4087C21.3511 12.5255 21.2248 12.6947 21.1482 12.8277C20.2456 14.3913 20.0562 15.9723 21.0072 17.5922C21.5835 18.5742 21.5029 19.505 20.9212 20.4936C20.3755 21.4154 19.9185 22.3869 19.5565 23.3951C19.0058 24.9358 19.2261 26.4053 20.3651 27.6424C20.8178 28.134 20.9884 28.6485 20.8742 29.2395C18.3449 30.0482 15.4072 29.7446 13.0727 29.1442C13.0738 28.4323 12.9303 27.7276 12.6509 27.0729C12.0679 25.7081 12.1472 24.4858 12.8551 23.2392C12.968 23.0209 13.0602 22.7925 13.1304 22.5569C13.4031 21.7671 13.4286 20.9718 13.0834 20.2008C12.8164 19.5871 12.5159 18.9884 12.1834 18.4076C11.6999 17.5895 11.4433 16.7325 11.5843 15.7842C11.6824 15.1233 11.7791 14.4584 11.9403 13.8123C12.2143 12.7109 11.9524 12.1346 10.9382 11.6699C10.4726 11.4533 10.0205 11.2088 9.58425 10.9378C8.63055 10.3562 7.69297 9.7477 6.74061 9.16339C6.38868 8.94578 5.99644 8.7577 5.66198 9.17411C5.42691 9.46694 5.60556 9.87797 6.10256 10.2192C7.00791 10.8371 7.92265 11.4375 8.83203 12.0473C9.19605 12.2905 9.55604 12.5376 9.94961 12.8036C8.96501 13.6122 8.03012 14.3725 7.10194 15.1422C6.79434 15.3987 6.43434 15.6351 6.23017 15.9629C6.08241 16.1993 6.01659 16.6909 6.15898 16.8562C6.40211 17.1382 6.41285 17.3397 6.35778 17.6715C6.30411 18.0239 6.32842 18.3839 6.42897 18.7259C6.57953 19.2156 6.77374 19.6908 7.00925 20.1458C7.56133 21.2553 7.55595 22.3245 6.90985 23.4018C6.61299 23.8948 6.35644 24.4132 6.10928 24.9344C5.5001 24.3021 4.93759 23.6265 4.42619 22.9128C2.31595 19.9241 1.84179 15.6284 2.97549 11.7021C3.50647 9.88924 4.43414 8.21722 5.69126 6.80723C6.94838 5.39724 8.50346 4.28461 10.2438 3.54996C14.7719 1.66807 19.3147 1.33629 23.7461 4.15442C24.5561 4.67023 26.716 6.41645 27.0558 6.67838L27.0773 6.69448L27.0948 6.71465C28.8235 8.54818 30.8035 11.8996 30.7605 15.345C30.7457 16.8186 30.5462 18.2844 30.1668 19.7084V19.7079Z" fill="#101010"/>
</svg>
