<svg
width="14"
height="14"
viewBox="0 0 14 14"
fill="none"
xmlns="http://www.w3.org/2000/svg"
>
<path
  d="M6.72982 8.15292C5.62549 9.14158 4.54555 10.0992 3.47643 11.0688C2.85706 11.6304 2.25986 12.2165 1.64194 12.7797C1.47735 12.9335 1.28823 13.0586 1.08237 13.1496C0.980858 13.1923 0.761646 13.1496 0.711654 13.0716C0.645509 12.9679 0.665065 12.784 0.700944 12.6488C0.727045 12.5501 0.83332 12.4685 0.913494 12.3893C2.43819 10.8881 3.96358 9.38783 5.48963 7.88854C5.66087 7.72038 5.83702 7.55734 6.03376 7.37061C5.36686 6.6315 4.69892 5.9183 4.06127 5.1786C3.04358 3.99749 2.04631 2.79882 1.04061 1.60748C1.00405 1.56419 0.972603 1.5168 0.935704 1.4735C0.759712 1.26546 0.635637 1.04122 0.836029 0.78886C0.98609 0.599907 1.34482 0.628129 1.59461 0.88518C2.2167 1.52517 2.8227 2.18066 3.42362 2.84118C4.52089 4.04658 5.6096 5.25982 6.70296 6.46879C6.74976 6.51277 6.79953 6.55346 6.85191 6.59058C7.69735 5.78252 8.53342 4.9771 9.37648 4.17859C10.3542 3.253 11.3354 2.33106 12.32 1.41274C12.6893 1.06756 12.9854 1.00535 13.2121 1.20674C13.447 1.41539 13.4251 1.76396 13.0505 2.13769C12.0378 3.14825 11.0005 4.13427 9.96432 5.1214C9.1749 5.87363 8.3729 6.61291 7.53273 7.39863C8.21544 8.10476 8.86842 8.80858 9.553 9.47984C10.2105 10.1246 10.9048 10.732 11.5753 11.3634C11.8374 11.601 12.0829 11.8565 12.3099 12.128C12.4931 12.3558 12.5201 12.6386 12.295 12.8633C12.0732 13.0849 11.8163 13.0065 11.6023 12.8388C11.193 12.5347 10.8006 12.2082 10.427 11.861C9.28321 10.7408 8.15961 9.6001 7.02867 8.46681C6.93923 8.37732 6.85378 8.28341 6.72982 8.15292Z"
  fill="#F37878"
/>
</svg>