<svg width="48" height="45" viewBox="0 0 48 45" fill="none" xmlns="http://www.w3.org/2000/svg">
<g clip-path="url(#clip0_13_14)">
<path d="M11.5054 3.54878C11.5054 2.80549 11.4899 2.12416 11.5094 1.44364C11.5334 0.604428 11.7532 0.237485 12.2031 0.207485C12.6531 0.177485 12.902 0.49867 13.0298 1.34775C13.1282 1.99334 13.1781 2.6458 13.2659 3.44672L33.646 3.27112C33.6877 2.84323 33.7172 2.45852 33.7641 2.07602C33.8125 1.68642 33.8609 1.29545 33.9412 0.911573C34.0386 0.445981 34.3165 0.142825 34.819 0.138483C35.3648 0.133549 35.6779 0.459783 35.7651 0.961493C35.8663 1.54255 35.9001 2.13541 35.9619 2.72317C35.9788 2.88225 35.9932 3.0417 36.018 3.29552C36.9798 3.34545 37.9159 3.42106 38.8521 3.43784C42.9864 3.51166 45.3165 6.06105 46.1443 9.64762C46.5612 11.4533 46.6517 13.3493 46.7484 15.2116C46.9729 19.5417 47.1365 23.8761 47.2754 28.2089C47.3542 30.6366 47.3357 33.0685 47.3561 35.4987C47.3979 40.4116 43.6802 43.0404 40.4125 43.9311C39.2769 44.2506 38.1074 44.4328 36.9289 44.4739C30.0496 44.6426 23.1687 44.8309 16.2882 44.8356C12.6186 44.8384 8.97321 44.2538 5.3835 43.475C2.62809 42.8773 0.50464 40.3139 0.175564 37.3487C0.0744623 36.3685 0.0327247 35.3833 0.0505848 34.398C0.0867988 31.0145 0.18935 27.6316 0.203914 24.2481C0.221037 20.3067 0.182452 16.3649 0.14486 12.4234C0.134626 11.3424 0.0649594 10.2918 0.456227 9.22447C1.54776 6.24736 3.68715 4.60251 6.73267 4.08343C7.95666 3.87462 9.20526 3.81093 10.4424 3.67869C10.7636 3.64435 11.0807 3.60089 11.5054 3.54878ZM44.2238 14.8999C37.2274 15.1294 30.3877 15.3735 23.5466 15.573C16.6777 15.7741 9.80631 15.9324 2.88491 16.1109C2.87783 16.1944 2.85342 16.3517 2.85323 16.509C2.84667 21.766 2.84248 27.0231 2.84065 32.2802C2.84065 33.692 2.83337 35.1054 2.89773 36.5148C2.93914 37.5077 3.31641 38.4569 3.96748 39.2063C4.61854 39.9555 5.50456 40.4602 6.47974 40.6372C10.4554 41.3128 14.4283 41.9398 18.4868 41.8301C22.1884 41.7296 25.8934 41.7648 29.5959 41.6896C32.5428 41.6304 35.4892 41.5151 38.4329 41.3811C39.7169 41.3142 40.9573 40.8906 42.015 40.1574C43.4429 39.1929 44.4023 37.9299 44.4336 36.1114C44.4578 34.7002 44.5488 33.289 44.5269 31.8784C44.4437 26.5242 44.3262 21.1706 44.223 15.8168C44.2183 15.4936 44.2244 15.1703 44.2244 14.8999H44.2238ZM2.62179 13.6611C16.4766 12.919 30.1118 12.4357 43.8318 12.1081C43.753 11.4084 43.7424 10.7462 43.5956 10.116C43.1411 8.17449 42.2911 6.51251 40.1802 5.9358C38.8409 5.56987 37.4675 5.6756 36.0471 5.70817C36.0154 6.0212 35.9952 6.27697 35.9619 6.53098C35.9346 6.79178 35.8926 7.05089 35.8367 7.30707C35.6366 8.12141 35.2266 8.49124 34.595 8.44723C33.9587 8.40341 33.5952 7.97578 33.5377 7.13755C33.5049 6.65913 33.5318 6.17655 33.5318 5.71964H13.4206C13.4206 6.18641 13.4295 6.54053 13.4185 6.89382C13.4181 7.38533 13.3918 7.8764 13.3397 8.36512C13.3216 8.59893 13.2158 8.81718 13.0436 8.97592C12.8715 9.13466 12.6458 9.22212 12.4119 9.22072C11.8609 9.25387 11.5479 8.90495 11.4259 8.43008C11.3544 8.04393 11.3235 7.6513 11.3336 7.25868C11.3159 6.81637 11.3159 6.37328 11.3063 5.80743C9.81656 5.93355 8.4538 5.91302 7.15344 6.18973C4.99064 6.65019 3.21224 7.72628 2.81251 10.1438C2.62848 11.2612 2.68162 12.4181 2.62179 13.6611Z" fill="#101010"/>
<path d="M12.1021 37.4054C11.8132 37.418 11.2582 37.4646 10.7031 37.4626C9.50001 37.4598 8.76628 36.9139 8.5425 35.7455C8.26991 34.3908 8.33 32.99 8.71765 31.6637C8.7899 31.3767 8.93796 31.1144 9.14621 30.9048C9.35448 30.695 9.61524 30.5454 9.90112 30.4716C11.4729 30.0129 13.1139 29.8402 14.7465 29.9612C15.6212 30.022 16.2978 30.5105 16.4981 31.4298C16.8016 32.8193 16.8831 34.2234 16.5058 35.614C16.1892 36.7805 15.4401 37.357 14.2307 37.4018C13.6111 37.4243 12.9897 37.4054 12.1021 37.4054ZM13.5467 32.7044H10.9909L11.0991 34.4105H13.5467V32.7044Z" fill="#101010"/>
<path d="M27.9084 32.982C27.9084 33.3165 27.9129 33.5137 27.9084 33.7107C27.8541 35.7534 27.1987 36.548 25.1827 36.9001C24.1526 37.0799 23.1087 37.199 22.0661 37.287C20.9356 37.3827 20.1767 36.878 19.9551 35.8148C19.6746 34.4642 19.5103 33.0939 19.8051 31.7115C20.0126 30.7401 20.5853 30.0933 21.5521 29.9488C22.8449 29.7467 24.1484 29.6196 25.4561 29.5685C26.9161 29.5221 27.5508 30.115 27.7785 31.5503C27.8586 32.0674 27.8738 32.5951 27.9084 32.982ZM24.9782 32.3626H22.1592C22.2537 33.0992 22.3383 33.757 22.4257 34.4384C23.0599 34.3764 23.5783 34.3302 24.0957 34.2742C25.0325 34.1729 25.1337 34.057 25.0892 33.1008C25.0782 32.8784 25.0233 32.6581 24.9774 32.3626H24.9782Z" fill="#101010"/>
<path d="M34.78 37.0694C34.1594 37.0977 33.5379 37.0939 32.9177 37.058C31.7935 36.9396 31.1385 36.3443 31.071 35.2422C30.9909 34.0312 31.0057 32.816 31.1151 31.6073C31.2332 30.3714 31.7921 29.8671 33.0297 29.7696C34.2346 29.6744 35.4494 29.6474 36.6582 29.6725C37.9341 29.6991 39.1361 30.5212 39.0416 32.2037C38.9956 33.0226 38.981 33.8464 38.8759 34.6582C38.6748 36.2097 37.916 36.8906 36.3482 37.0088C35.8261 37.0483 35.3029 37.0756 34.7802 37.1085L34.78 37.0694ZM33.5686 32.059C33.608 32.899 33.6377 33.5358 33.667 34.1498H35.9579C36.017 33.515 36.0654 32.9721 36.1231 32.3403L33.5686 32.059Z" fill="#101010"/>
<path d="M34.6786 26.4149C34.1238 26.4463 33.5686 26.5078 33.0142 26.5025C31.6463 26.4895 30.934 25.8417 30.8659 24.4856C30.813 23.4378 30.813 22.3882 30.8659 21.3405C30.9333 20.029 31.404 19.4675 32.6979 19.3319C34.1272 19.1803 35.5643 19.1178 37.0011 19.1447C38.3349 19.1718 39.0456 19.9234 39.0385 21.2878C39.0239 22.4 38.91 23.5086 38.6978 24.6003C38.485 25.7369 37.8027 26.2653 36.6377 26.3474C35.9882 26.3934 35.3315 26.3557 34.6779 26.3557L34.6786 26.4149ZM33.3009 23.7555H36.1046C36.1803 23.0778 36.2477 22.4762 36.3333 21.7094L33.3009 21.5754V23.7555Z" fill="#101010"/>
<path d="M19.0192 22.9291C19.0848 22.2778 19.1261 21.5886 19.23 20.9081C19.3481 20.1383 19.7309 19.5439 20.5487 19.3773C21.9953 19.0826 23.4498 18.8325 24.9353 19.0095C26.2325 19.1639 26.9363 19.7175 27.1162 21.0148C27.2363 21.9859 27.2204 22.9692 27.0692 23.9359C26.9177 24.982 26.1786 25.6104 25.1296 25.7479C23.8637 25.9137 22.5907 26.0456 21.3169 26.1241C20.0856 26.2003 19.3402 25.5703 19.1275 24.3421C19.0499 23.8923 19.055 23.4277 19.0192 22.9291ZM24.3354 21.6314L21.399 21.4366C21.4448 22.1691 21.48 22.7337 21.5206 23.3801L24.335 23.0965L24.3354 21.6314Z" fill="#101010"/>
</g>
<defs>
<clipPath id="clip0_13_14">
<rect width="47.4324" height="45" fill="white"/>
</clipPath>
</defs>
</svg>
