<svg width="25" height="25" viewBox="0 0 25 25" fill="none" xmlns="http://www.w3.org/2000/svg">
<g clip-path="url(#clip0_37_37)">
<path d="M13.5186 24.9076C11.245 24.8687 8.9699 24.8691 6.69859 24.7775C5.16447 24.7155 3.62751 24.6071 2.11425 24.2959C1.2421 24.1166 0.707 23.6225 0.572256 22.7435C0.489142 22.2269 0.441061 21.7052 0.428391 21.1822C0.380954 18.2668 0.377788 15.3506 0.306838 12.4359C0.25337 10.238 0.115136 8.04223 0.0262947 5.84508C-0.0124518 4.88784 -0.0163012 3.9409 0.218632 2.98794C0.55222 1.63559 1.43123 0.908957 2.71038 0.594467C3.22173 0.477095 3.7438 0.412638 4.2684 0.402119C6.17393 0.337119 8.0808 0.308762 9.98654 0.24968C11.4024 0.205701 12.817 0.102524 14.2327 0.0876258C15.3683 0.0757891 16.505 0.154361 17.641 0.198136C18.0629 0.216489 18.4706 0.355799 18.8153 0.599374C19.9743 1.39081 20.9997 2.33836 22.0246 3.28948C22.6897 3.90673 23.3673 4.51396 24.0776 5.07774C24.5442 5.44804 24.7796 5.88591 24.7728 6.46652C24.7572 7.77581 24.7487 9.08519 24.7187 10.3942C24.6688 12.5758 24.5807 14.7568 24.5533 16.9386C24.543 18.8594 24.2998 20.7719 23.829 22.6343C23.7634 22.8869 23.6797 23.1343 23.6047 23.3847C23.3965 24.078 22.9104 24.4627 22.2143 24.5706C21.595 24.6821 20.9689 24.7525 20.3403 24.7812C18.3819 24.822 16.4227 24.8232 14.4638 24.8388C14.149 24.8414 13.8341 24.8388 13.5193 24.8388C13.5191 24.8623 13.5188 24.8849 13.5186 24.9076ZM4.17494 1.90754C3.674 1.98499 3.24063 2.02049 2.82444 2.12365C2.18323 2.28253 1.73934 2.65702 1.63353 3.35661C1.58815 3.61415 1.51972 3.8671 1.42906 4.11243C1.21918 4.72274 1.22674 5.35111 1.27776 5.97744C1.42507 7.7854 1.64579 9.58917 1.73412 11.3997C1.84862 13.7526 1.86705 16.1102 1.91817 18.4661C1.94332 19.6179 1.9437 20.7701 1.96608 21.922C1.98449 22.8698 2.05808 22.9887 2.98033 23.0939C4.47294 23.264 5.97006 23.4792 7.46779 23.4999C11.2096 23.5519 14.9534 23.517 18.6961 23.4897C19.6384 23.4828 20.5814 23.3903 21.5213 23.3059C22.1468 23.2499 22.1898 23.204 22.3187 22.6122C22.4562 21.9825 22.5707 21.3468 22.6721 20.7102C22.9284 19.1017 22.9362 17.4772 22.9686 15.8542C22.9928 14.6327 23.0299 13.4114 23.06 12.1899C23.1014 10.4973 23.1358 8.80457 23.1858 7.11212C23.2001 6.94093 23.1694 6.76896 23.0967 6.61326C23.024 6.45755 22.9118 6.32351 22.7713 6.22438C22.1025 5.69254 21.4779 5.1054 20.8357 4.54071C19.9446 3.75673 19.0457 2.98131 18.1674 2.18355C17.7711 1.82396 17.316 1.76896 16.7681 1.77539C16.7886 2.151 16.8227 2.49499 16.8214 2.83887C16.8183 3.62305 16.8426 4.41121 16.7732 5.19049C16.6787 6.25069 16.2066 6.7415 15.1796 6.99334C15.0285 7.03595 14.8748 7.06857 14.7196 7.091C13.5563 7.21814 12.3949 7.37458 11.2282 7.45377C9.69364 7.55795 8.15581 7.64824 6.61607 7.50579C5.50295 7.40283 4.90654 6.93651 4.58573 5.85692C4.32267 4.98756 4.18466 4.08533 4.17579 3.17723C4.17303 2.78049 4.17494 2.38377 4.17494 1.90744V1.90754ZM15.0802 1.66069C14.2716 1.66069 13.5234 1.64326 12.7763 1.66428C11.0647 1.71244 9.3537 1.78345 7.64211 1.83672C6.99589 1.85712 6.34874 1.8513 5.70221 1.86375C5.56584 1.87391 5.43016 1.89178 5.29582 1.91724C5.3681 3.14224 5.52712 4.3113 5.87532 5.45007C6.04994 6.0215 6.14918 6.10213 6.76278 6.14111C6.98933 6.1556 7.21731 6.1658 7.44407 6.15876C8.78885 6.11671 10.136 6.10581 11.4771 6.01142C12.5028 5.93938 13.523 5.77285 14.5416 5.62152C15.0269 5.54938 15.0975 5.46428 15.1087 4.96907C15.1291 4.06244 15.1189 3.15518 15.1164 2.24814C15.116 2.076 15.0959 1.90406 15.0802 1.66059V1.66069Z" fill="#101010"/>
<path d="M14.7385 10.54C15.6545 10.5677 17.3498 10.6167 19.0449 10.6727C19.2546 10.6833 19.463 10.7103 19.6685 10.7535C20.2529 10.8658 20.6584 11.1914 20.7893 11.7852C20.8905 12.2438 20.9709 12.7086 21.0303 13.1745C21.2268 14.7176 21.3466 16.2649 21.2052 17.8207C21.1839 18.0287 21.145 18.2346 21.0888 18.4362C20.8938 19.1649 20.4048 19.5971 19.6799 19.7574C19.3738 19.8302 19.0605 19.8691 18.7459 19.8734C16.2273 19.8626 13.7083 19.8614 11.1908 19.8078C9.84597 19.7792 8.50213 19.6617 7.16 19.5653C6.79452 19.5323 6.43236 19.4693 6.07722 19.377C4.98332 19.1131 4.479 18.5265 4.4012 17.3988C4.37278 16.9109 4.37278 16.4217 4.4012 15.9338C4.44945 14.9227 4.51715 13.9125 4.5834 12.9023C4.59829 12.7289 4.62686 12.5571 4.66887 12.3882C4.84369 11.6199 5.31877 11.172 6.10852 11.0821C7.04672 10.976 7.98411 10.8442 8.92568 10.789C10.6008 10.6913 12.2797 10.6422 14.7385 10.54ZM19.3987 12.226C18.6738 12.1831 18.0282 12.1073 17.3834 12.1137C15.1279 12.1364 12.871 12.1484 10.6179 12.2417C9.15313 12.3023 7.69333 12.4907 6.23271 12.6357C5.83472 12.6751 5.80161 12.7309 5.74631 13.1183C5.72909 13.2392 5.72087 13.3613 5.72175 13.4834C5.72986 14.7565 5.73977 16.0295 5.7515 17.3025C5.75003 17.4595 5.75935 17.6166 5.77941 17.7724C5.7862 17.8692 5.82363 17.9615 5.88623 18.0358C5.94883 18.1101 6.0334 18.1627 6.12784 18.1861C6.27676 18.2361 6.42979 18.2729 6.58514 18.2963C7.94342 18.4038 9.30109 18.5602 10.6614 18.5914C12.9342 18.6432 15.2088 18.6189 17.4826 18.6134C17.9893 18.608 18.4955 18.5769 18.999 18.5201C19.6131 18.4561 19.721 18.3518 19.7368 17.7321C19.7728 16.319 19.7981 14.9048 19.5783 13.5003C19.5144 13.0905 19.4622 12.679 19.3987 12.226Z" fill="#101010"/>
</g>
<defs>
<clipPath id="clip0_37_37">
<rect width="24.8428" height="25" fill="white"/>
</clipPath>
</defs>
</svg>
