<svg width="49" height="45" viewBox="0 0 49 45" fill="none" xmlns="http://www.w3.org/2000/svg">
<g clip-path="url(#clip0_13_73)">
<path d="M26.2972 0.0369492C31.4558 0.146586 35.2533 2.42313 37.5751 7.05751C38.8108 9.52351 39.9517 12.0374 41.1907 14.5017C41.6937 15.495 42.2735 16.4474 42.9248 17.3499C43.9105 18.723 43.2867 20.7288 41.6515 21.0952C40.6631 21.2999 39.6634 21.4454 38.6576 21.5305C36.4076 21.7555 34.1539 21.944 31.9016 22.1474C31.833 22.1609 31.763 22.1658 31.6933 22.1621C30.3586 21.9387 29.2043 22.4904 27.9919 22.9261C26.1429 23.5708 24.1722 23.7866 22.2281 23.5569C19.8616 23.3141 17.6515 22.6978 15.6149 21.4474C15.315 21.2633 14.889 21.2725 14.5172 21.2212C12.5832 20.9553 10.7104 21.4548 8.81452 21.68C8.19053 21.7491 7.56246 21.7745 6.93494 21.7563C5.68577 21.7293 4.80078 20.4455 5.51646 19.3017C7.19425 16.6203 8.14577 13.5936 9.56304 10.7891C11.2225 7.5051 13.5533 4.81739 16.6649 2.84067C18.7993 1.49458 21.2007 0.631342 23.7021 0.311208C24.5631 0.194003 25.4317 0.126949 26.2972 0.0369492ZM14.444 12.2929C13.934 15.2422 15.8564 18.5358 18.7552 19.6011C20.5603 20.2593 22.4813 20.5382 24.3986 20.4207C27.4555 20.2532 29.7207 18.7215 31.3471 16.1943C31.9293 15.2727 32.2368 14.2033 32.2329 13.1123C28.924 12.0077 25.9585 10.5571 24.5343 6.90331C21.989 10.4884 18.3099 11.5936 14.444 12.2929Z" fill="#101010"/>
<path d="M29.8935 44.6723C25.3924 44.6723 20.891 44.6506 16.3901 44.6794C12.7652 44.7026 9.1407 44.8052 5.51622 44.832C4.57576 44.8277 3.63696 44.7525 2.70777 44.607C0.556661 44.2953 -0.306718 43.0196 0.406304 40.9612C0.895448 39.5799 1.53479 38.2565 2.31278 37.0153C5.58799 31.7311 10.3509 28.2698 16.072 26.0699C18.9344 24.9441 21.9629 24.3018 25.0349 24.1689C28.9683 24.0193 32.7492 24.4978 36.2566 26.4201C39.3737 28.1286 41.8894 30.4993 43.9801 33.3628C45.4765 35.4127 46.5082 37.7079 47.5585 39.9917C47.8043 40.609 47.9555 41.2601 48.0073 41.9228C48.1854 43.3599 47.4402 44.2992 46.0013 44.4493C44.9286 44.5614 43.8479 44.6479 42.7703 44.6539C38.4787 44.6766 34.1869 44.6631 29.8951 44.6631L29.8935 44.6723ZM2.69004 41.7722C2.79906 41.8197 2.91076 41.8606 3.0246 41.8948C4.26907 42.175 5.51112 42.0026 6.76559 41.9322C9.30432 41.789 11.8496 41.7242 14.3928 41.7111C22.8014 41.6675 31.2104 41.6704 39.6189 41.6325C41.1507 41.6258 42.682 41.5129 44.2131 41.439C44.3306 41.4153 44.4432 41.3719 44.5466 41.311C44.5613 41.1809 44.5946 41.1034 44.5732 41.0463C43.1437 37.2213 41.098 33.8029 37.9542 31.1367C36.1267 29.5869 34.1106 28.3379 31.7537 27.7664C28.2108 26.9194 24.5229 26.8875 20.9661 27.6729C14.527 29.0434 9.15759 32.2032 5.16059 37.5289C4.17929 38.836 3.26413 40.1946 2.69004 41.771V41.7722Z" fill="#101010"/>
</g>
<defs>
<clipPath id="clip0_13_73">
<rect width="48.1469" height="45" fill="white"/>
</clipPath>
</defs>
</svg>
