<svg width="31" height="30" viewBox="0 0 31 30" fill="none" xmlns="http://www.w3.org/2000/svg">
<g clip-path="url(#clip0_33_117)">
<path d="M20.425 29.5007C20.8283 29.581 21.2371 29.6315 21.6476 29.6517C21.8762 29.6635 22.1046 29.6757 22.3331 29.6882C23.367 29.7441 24.4361 29.8017 25.4896 29.8077C25.5444 29.8077 25.5993 29.8077 25.6542 29.8077C26.6342 29.8077 27.6545 29.7586 28.6893 29.6613C29.655 29.5705 29.9136 29.2967 29.9465 28.33C30.017 26.2675 30.0684 24.17 30.1181 22.1417L30.1455 21.0245C30.1488 20.8218 30.1273 20.6195 30.0817 20.422C29.9751 19.9456 29.6602 19.6471 29.2395 19.6246C29.0264 19.6132 28.8162 19.6771 28.6453 19.805C28.4743 19.9328 28.3535 20.1166 28.3038 20.3245C28.2115 20.6642 28.1631 21.0145 28.1597 21.3666C28.1472 22.3865 28.1477 23.4228 28.1481 24.4253C28.1481 24.7741 28.1481 25.123 28.1481 25.4717C28.1481 25.982 28.1481 26.4923 28.1481 27.0183V27.6593L28.0857 27.6747C28.0366 27.6896 27.9862 27.6997 27.935 27.705C27.6724 27.7165 27.4099 27.7292 27.1474 27.7423C26.4434 27.7766 25.7155 27.8121 25.0002 27.8228C24.2142 27.8353 23.4149 27.8313 22.6415 27.8276C22.1693 27.8253 21.6969 27.8231 21.2251 27.8243C20.9606 27.8165 20.696 27.8356 20.4353 27.8813C19.9839 27.9765 19.6956 28.2868 19.6826 28.6912C19.676 28.9367 19.762 29.3661 20.425 29.5007Z" fill="#101010"/>
<path d="M8.22731 27.8406C6.87988 27.8209 5.50998 27.8156 4.18501 27.8106C3.76082 27.809 3.33664 27.8072 2.91245 27.8054C2.69799 27.8045 2.48351 27.8046 2.25258 27.8054H2.02651C2.02214 27.7624 2.01791 27.7227 2.01404 27.6856C2.00157 27.5655 1.99134 27.4706 1.98822 27.3796C1.95753 26.4939 1.92732 25.6082 1.89763 24.7226C1.85688 23.5154 1.81555 22.3081 1.77363 21.1006C1.77046 20.8171 1.74653 20.5341 1.70203 20.254C1.68271 20.107 1.61277 19.9714 1.50428 19.8705C1.39579 19.7696 1.25553 19.7099 1.10776 19.7016C0.774897 19.6751 0.521388 19.8491 0.396626 20.1915C0.351281 20.323 0.323421 20.4599 0.313777 20.5986L0.298577 20.7701C0.269632 21.0927 0.239816 21.4265 0.230958 21.7576C0.164335 24.228 0.10854 26.4716 0.0605072 28.6169C0.0442882 29.337 0.468496 29.7982 1.22418 29.8824C1.47051 29.9052 1.7179 29.9146 1.96525 29.9104C2.04235 29.9104 2.11934 29.9104 2.19632 29.9115L3.30583 29.925C4.97688 29.9452 6.7047 29.9662 8.40446 29.975H8.41244C8.68145 29.968 8.94661 29.9091 9.19333 29.8014C9.37613 29.7385 9.53486 29.62 9.64751 29.4626C9.76015 29.3052 9.82115 29.1167 9.82204 28.923C9.82292 28.7294 9.76366 28.5402 9.65247 28.3817C9.54127 28.2234 9.38364 28.1035 9.20142 28.0389C8.89093 27.9157 8.56114 27.8486 8.22731 27.8406Z" fill="#101010"/>
<path d="M0.954653 10.7085H0.974726C1.39417 10.7085 1.72805 10.391 1.84894 9.87516C1.87758 9.74075 1.89218 9.60373 1.89258 9.46629C1.8947 9.35379 1.89757 9.24126 1.90032 9.12876C1.90918 8.77514 1.91831 8.40956 1.90496 8.04869C1.8672 7.03369 1.82595 6.01883 1.7812 5.00408C1.75001 4.26674 1.71943 3.52921 1.68948 2.79155C1.68063 2.56568 1.68287 2.33731 1.68537 2.09556C1.68612 2.01844 1.68685 1.93991 1.68735 1.85954C1.79377 1.85891 1.89708 1.85744 1.99801 1.85606C2.28496 1.85181 2.55706 1.84814 2.82343 1.86314C4.70533 1.96926 6.28846 2.00065 7.89851 1.8054C8.18939 1.774 8.47147 1.6866 8.72928 1.54801C8.83724 1.48903 8.92763 1.40244 8.99129 1.29704C9.05496 1.19164 9.08963 1.07122 9.09173 0.948043C9.09228 0.822168 9.05954 0.69842 8.99685 0.589339C8.93414 0.480258 8.84371 0.389764 8.73477 0.32707C8.51402 0.204985 8.26951 0.132229 8.01803 0.113814C7.75231 0.0945678 7.48568 0.0908474 7.21954 0.102766C7.13969 0.104766 7.05985 0.10689 6.98012 0.108015C5.84363 0.124682 4.70712 0.141669 3.57063 0.158919L0.96312 0.198043C0.535812 0.204418 0.289415 0.40453 0.210316 0.81053C0.148351 1.11178 0.114319 1.41816 0.108644 1.72569C0.0884321 3.78444 0.0726938 6.04729 0.0587205 8.84691C0.0510225 9.17434 0.0683755 9.50186 0.110623 9.82664C0.192467 10.368 0.507757 10.6978 0.954653 10.7085Z" fill="#101010"/>
<path d="M28.0546 3.19141C28.0207 3.60804 27.9855 4.03906 27.9604 4.46419L27.9264 5.02796C27.8685 5.97646 27.8087 6.95721 27.7958 7.92396C27.797 8.34809 27.8987 8.76586 28.0924 9.14295C28.1502 9.27124 28.242 9.38117 28.3579 9.46076C28.4738 9.54036 28.6092 9.58654 28.7496 9.59431H28.7598C28.9014 9.58825 29.0388 9.54396 29.1573 9.46614C29.2759 9.38831 29.3714 9.27984 29.4335 9.15217C29.6342 8.78247 29.756 8.375 29.7912 7.95557C29.9746 5.73133 29.8588 3.47479 29.7469 1.29304L29.7333 1.02742C29.7084 0.548541 29.4562 0.239975 29.0026 0.13435C28.6621 0.0465688 28.3116 0.00408808 27.9603 0.00806833C26.1697 0.0656934 24.2807 0.140426 22.0156 0.243176C21.7477 0.261691 21.4843 0.321026 21.2344 0.419079C21.0957 0.468471 20.9783 0.564384 20.9021 0.690564C20.8258 0.816742 20.7955 0.965439 20.8162 1.11146C20.816 1.2615 20.8744 1.40567 20.9788 1.51314C21.0833 1.6206 21.2257 1.68281 21.3754 1.68648C21.4515 1.6946 21.5275 1.70384 21.6033 1.71309C21.8017 1.73709 22.0067 1.76195 22.2119 1.76795C22.6819 1.7817 23.1594 1.78921 23.6217 1.79646C23.941 1.80146 24.2601 1.80642 24.5794 1.81355C25.4104 1.8318 26.2415 1.8523 27.1033 1.87343L28.1224 1.89845C28.1224 1.93895 28.1234 1.97695 28.124 2.0132C28.126 2.14683 28.1276 2.2523 28.1203 2.35542C28.0998 2.63367 28.0772 2.91254 28.0546 3.19141Z" fill="#101010"/>
</g>
<defs>
<clipPath id="clip0_33_117">
<rect width="30.1923" height="30" fill="white"/>
</clipPath>
</defs>
</svg>
