<svg width="32" height="25" viewBox="0 0 32 25" fill="none" xmlns="http://www.w3.org/2000/svg">
<g clip-path="url(#clip0_46_598)">
<path d="M27.6922 0.0678711C28.1786 0.121558 28.6661 0.166847 29.1512 0.230556C30.7254 0.43793 31.4935 1.3046 31.5698 2.90103C31.7087 5.80863 31.5571 8.70966 31.4497 11.6142C31.3773 13.5739 31.4708 15.5393 31.4605 17.502C31.4543 18.6786 31.4541 19.8611 31.3407 21.0303C31.0984 23.5262 29.6692 24.8255 27.1541 24.9071C26.3294 24.9338 25.5027 24.9046 24.677 24.9008C22.5151 24.8907 20.3533 24.8803 18.1915 24.8697C14.7316 24.8488 11.2716 24.8367 7.81199 24.7899C7.14418 24.7664 6.47998 24.6808 5.82793 24.5344C4.82958 24.3314 4.11675 23.6871 3.56939 22.8682C2.98558 21.9948 2.63336 21.0077 2.3744 20.0008C1.79861 17.7624 1.24895 15.5172 0.725429 13.2655C0.466928 12.1595 0.249364 11.0413 0.0699777 9.91957C-0.114008 8.76277 0.394484 8.07247 1.54807 7.8545C2.22112 7.72777 2.90497 7.65514 3.61263 7.55399C3.63275 7.44788 3.65494 7.33643 3.67495 7.22457C3.79592 6.54899 4.17804 6.04409 4.81601 5.83948C5.59459 5.57659 6.39548 5.38544 7.20875 5.2684C10.7891 4.81287 14.3905 4.90747 17.9882 4.93178C18.1647 4.93304 18.3414 4.9286 18.5177 4.9203C18.5522 4.91869 18.5848 4.8869 18.6315 4.86213C18.6315 4.42331 18.6212 3.97692 18.6343 3.53118C18.6487 3.04109 18.6621 2.54915 18.7158 2.0624C18.8351 0.981869 19.2448 0.515515 20.3396 0.377266C21.371 0.247082 22.4157 0.220794 23.4551 0.157315C24.0804 0.119066 24.7066 0.0971338 25.3325 0.0678711H27.6922ZM1.68284 9.27107C1.69654 9.56559 1.72493 9.85932 1.76794 10.151C2.30529 12.7174 2.8323 15.2863 3.40081 17.8458C3.73713 19.4187 4.32338 20.9272 5.13718 22.314C5.50285 22.928 6.0248 23.2372 6.72613 23.2471C7.45057 23.2576 8.17583 23.249 8.90073 23.2481C12.5763 23.2438 16.2519 23.24 19.9275 23.2365C21.4211 23.2365 22.9146 23.2539 24.4082 23.2643C25.4304 23.2713 26.4524 23.2874 27.4745 23.2844C27.97 23.2959 28.4556 23.1438 28.8566 22.8519C29.4029 22.4429 29.4961 21.9871 29.1708 21.3871C29.0549 21.1825 28.9499 20.972 28.8561 20.7565C27.9592 18.5844 27.0298 16.4247 26.1883 14.2315C25.6929 12.9092 25.0454 11.6492 24.259 10.477C23.6245 9.54478 22.7821 8.90275 21.6386 8.74825C20.979 8.64402 20.3128 8.58735 19.6452 8.57859C17.7389 8.59736 15.833 8.66327 13.927 8.71247C10.5867 8.79853 7.24601 8.87268 3.90677 8.98328C3.19049 9.00701 2.47881 9.16428 1.68284 9.27107ZM29.5892 18.2097L29.7059 18.2046C29.7059 17.9706 29.7189 17.7359 29.7039 17.5028C29.5067 14.4211 29.6248 11.3436 29.7552 8.26221C29.8273 6.5591 29.7378 4.84802 29.6899 3.14145C29.6682 2.36795 29.5535 2.28616 28.7815 2.21484C28.5467 2.19318 28.3108 2.16883 28.0755 2.16883C25.8346 2.1706 23.5936 2.17621 21.3528 2.18582C21.0825 2.1872 20.8123 2.23425 20.5351 2.26075C20.5351 2.94693 20.528 3.58937 20.5377 4.23154C20.5437 4.62324 20.601 5.01601 20.5905 5.40667C20.5721 6.09458 20.326 6.40419 19.6497 6.55707C19.2135 6.66602 18.7664 6.72567 18.317 6.73493C16.1942 6.72595 14.0703 6.63121 11.949 6.67395C10.184 6.7099 8.42076 6.87913 6.65944 7.02475C6.19372 7.06323 5.69742 7.11992 5.24504 7.53306C5.34043 7.55356 5.43702 7.56785 5.53425 7.57581C8.30507 7.52459 11.0759 7.47164 13.8466 7.41695C16.1843 7.36707 18.5217 7.26808 20.8595 7.25978C22.6344 7.25345 24.2014 7.87416 25.2972 9.31057C26.0285 10.2564 26.6621 11.2741 27.1883 12.3482C27.9165 13.8639 28.4885 15.4545 29.124 17.0141C29.2855 17.4106 29.4346 17.8112 29.5892 18.2097Z" fill="#101010"/>
</g>
<defs>
<clipPath id="clip0_46_598">
<rect width="31.7376" height="25" fill="white"/>
</clipPath>
</defs>
</svg>
