<svg width="33" height="32" viewBox="0 0 33 32" fill="none" xmlns="http://www.w3.org/2000/svg">
<path d="M16.0637 22.9332C14.0465 22.9434 12.3761 22.5938 10.9716 21.4706C10.4984 21.0922 10.1341 20.5588 9.78488 20.0516C9.5842 19.76 9.61201 19.373 9.97293 19.1754C10.2792 19.0078 10.5895 19.1024 10.8033 19.3911C12.0852 21.1213 13.9369 21.502 15.9173 21.4884C16.668 21.4833 17.4228 21.3112 18.1662 21.1671C19.4751 20.9132 20.5268 20.2591 21.2408 19.1006C21.4106 18.8377 21.6093 18.5946 21.8331 18.3759C22.1168 18.0874 22.4587 17.9024 22.8455 18.1812C23.1892 18.4291 23.1825 18.774 23.0401 19.1442C22.6301 20.2435 21.8525 21.1671 20.8393 21.7587C19.2906 22.6789 17.5681 22.8871 16.0637 22.9332Z" fill="#101010"/>
<path d="M12.1012 9.99491L11.2357 9.80297C9.29559 9.37314 7.61454 9.75464 6.2885 11.3356C6.15055 11.5 5.85208 11.5298 5.62817 11.6221C5.56329 11.3669 5.36382 11.0322 5.45879 10.8699C5.7461 10.381 6.07425 9.86249 6.51739 9.52803C8.34848 8.148 10.3809 8.07492 12.4876 8.78925C12.8252 8.90383 13.0912 9.13943 12.9987 9.54079C12.9081 9.93704 12.5892 10.0355 12.1012 9.99491Z" fill="#101010"/>
<path d="M10.7557 11.9663C11.8454 11.9891 12.7474 12.4683 13.4798 13.289C13.6059 13.4149 13.6909 13.5762 13.7234 13.7515C13.7403 13.9808 13.7362 14.2949 13.5997 14.4264C13.4875 14.5339 13.143 14.4892 12.9492 14.4039C12.6476 14.2712 12.387 14.046 12.1082 13.8613C10.5958 12.8595 9.24468 13.1979 8.34445 14.7664C8.22584 14.973 7.90588 15.2134 7.70574 15.1919C7.32171 15.1506 7.31782 14.7621 7.35382 14.4427C7.49203 13.2155 8.72552 12.1548 10.1894 11.998C10.3669 11.9787 10.5464 11.9772 10.7557 11.9663Z" fill="#101010"/>
<path d="M22.7359 7.80593C23.6604 7.77369 24.5255 8.04771 25.3427 8.49299C25.5395 8.59779 25.7242 8.72389 25.8934 8.86907C26.1614 9.10426 26.3443 9.40234 26.1434 9.75561C25.9246 10.1399 25.5524 10.11 25.1955 9.99081C25.0074 9.91982 24.8284 9.82663 24.6625 9.71317C23.2013 8.79118 21.7552 8.84624 20.3169 9.76568C20.0807 9.93397 19.8303 10.0815 19.5687 10.2065C19.427 10.2654 19.155 10.2693 19.0851 10.1827C19.0324 10.1034 18.9966 10.014 18.9798 9.92027C18.9631 9.82649 18.9657 9.73027 18.9876 9.63755C19.059 9.45075 19.1784 9.28609 19.3339 9.16027C20.2854 8.27294 21.3799 7.73272 22.7359 7.80593Z" fill="#101010"/>
<path d="M23.0175 11.4205C23.775 11.3944 24.5473 11.7035 25.199 12.3019C25.4139 12.4967 25.5994 12.7216 25.7497 12.9696C26.0295 13.4432 25.9752 13.9667 25.6664 14.195C25.3429 14.4344 24.9553 14.3 24.5289 13.8004C23.3688 12.4413 22.0937 12.3579 20.7344 13.5525C20.684 13.5966 20.6371 13.6447 20.5866 13.6893C20.3495 13.9013 20.084 14.1644 19.7744 13.8908C19.4386 13.5939 19.6023 13.2444 19.8195 12.9332C20.4649 12.0092 21.6952 11.4003 23.0175 11.4205Z" fill="#101010"/>
<path d="M1.21981 11.7901C-0.170706 17.2553 1.04694 22.0766 4.84143 26.1217C4.94015 26.2262 5.04089 26.3307 5.14164 26.4315C7.17985 28.4697 9.71869 29.7282 11.7304 30.6039C12.5937 30.981 17.0241 31.4389 18.2227 31.2604C25.3462 30.1965 30.0341 26.1788 31.6668 19.457C31.9786 18.1403 32.1339 16.7914 32.1294 15.4383C32.1369 12.2509 30.7949 8.54516 28.0272 5.76978C27.7423 5.53417 27.4582 5.29011 27.1838 5.05356C26.5882 4.54166 25.9727 4.01164 25.3288 3.55965C20.4097 0.0974713 15.2987 0.0780991 10.1385 1.91403C5.46643 3.5752 2.46592 6.89864 1.21981 11.7901ZM10.1585 3.5505C14.6862 1.66903 19.2292 1.33699 23.6599 4.15495C24.4702 4.67075 26.63 6.41642 26.9701 6.67862L26.9918 6.69472L27.01 6.71476C28.7386 8.54787 30.7173 11.8996 30.6743 15.3451C30.6598 16.8184 30.4604 18.284 30.0807 19.7075C28.9551 23.7985 26.2643 26.7799 21.8544 28.8191C17.3713 30.9657 10.9421 28.7956 9.2315 27.6663C7.34075 26.3737 5.68636 24.7656 4.34067 22.9122C2.23018 19.9242 1.75656 15.6291 2.89065 11.7027C3.42143 9.88978 4.34896 8.21771 5.60602 6.8077C6.86307 5.39768 8.41814 4.28506 10.1585 3.5505V3.5505Z" fill="#101010"/>
</svg>
