<svg width="37" height="30" viewBox="0 0 37 30" fill="none" xmlns="http://www.w3.org/2000/svg">
<path d="M4.61777 26.9892C5.84344 27.8331 7.21228 28.4469 8.65758 28.8011C11.6225 29.5204 14.1826 29.8639 16.6049 29.8639C17.0296 29.8639 17.4507 29.8534 17.8681 29.8324C18.8349 29.7682 19.7862 29.5557 20.6885 29.2024C22.1046 28.6708 22.8658 27.2885 22.5832 25.7625C22.4942 25.3799 22.3579 25.0099 22.1772 24.6611C22.1127 24.5225 22.0462 24.3804 21.9862 24.2369C24.3334 22.4969 24.6442 21.1668 23.2446 18.8334C23.8807 18.4025 24.4804 17.8727 24.6597 16.9759C24.8328 16.1103 24.4832 15.4227 23.9858 14.6382C24.3225 14.6162 24.6525 14.5969 24.976 14.578C25.7883 14.5303 26.5549 14.485 27.3269 14.4087L28.0014 14.3425C29.602 14.186 31.2569 14.0243 32.8693 13.7636C33.6465 13.6378 34.3871 13.262 35.1034 12.8985L35.1425 12.8785C36.0341 12.4264 36.4607 11.7539 36.3763 10.9345C36.27 9.90201 35.7388 9.15587 34.8806 8.83342C34.232 8.61752 33.562 8.47194 32.8821 8.39921L32.6756 8.36938C32.3409 8.32961 32.0035 8.31582 31.6667 8.32816C31.5193 8.32973 31.372 8.33149 31.2253 8.32816C30.5413 8.31517 29.8571 8.30044 29.1727 8.28395C27.6042 8.24886 25.9823 8.21149 24.3865 8.20587C23.1506 8.20114 21.9279 8.23324 20.6321 8.26693C20.1092 8.28044 19.5779 8.2943 19.0356 8.30587L19.1418 8.16693C19.2606 8.01166 19.3523 7.89044 19.4418 7.76605C20.4927 6.28949 20.9711 4.4814 20.7883 2.67833C20.6932 1.51903 20.1799 0.755176 19.262 0.407983C18.1409 -0.0158771 17.1446 0.133771 16.2999 0.853244C16.1203 1.0131 15.9512 1.18439 15.7938 1.36605C15.6558 1.52397 15.5097 1.67464 15.3562 1.81745C15.0851 2.06044 14.8149 2.31535 14.5535 2.56201C13.8847 3.2324 13.1581 3.84254 12.3821 4.38535C11.4835 4.94687 10.554 5.45728 9.59789 5.91412C9.08017 6.17342 8.5453 6.44166 8.02845 6.72289C6.81793 7.38237 5.53037 8.09131 4.27914 8.87219C3.76489 9.20165 3.31373 9.6204 2.94691 10.1087C0.212694 13.6924 -0.517016 17.6029 0.778422 21.7317C1.41565 23.8734 2.77159 25.7303 4.61777 26.9892ZM15.2793 8.93324C15.2772 9.38289 15.56 9.71272 16.0563 9.83816C16.3249 9.90377 16.6004 9.93642 16.8769 9.93535C17.5055 9.93728 18.77 9.93184 20.3706 9.92482C24.3313 9.90728 30.3163 9.88131 32.4421 9.94973C32.9469 9.97416 33.4492 10.0336 33.9456 10.1276C34.1686 10.1676 34.38 10.2562 34.5648 10.3871C34.8444 10.5899 34.9909 10.8218 34.9776 11.0403C34.9649 11.2446 34.8153 11.432 34.5444 11.5817C33.9788 11.9003 33.37 12.136 32.7374 12.2817C31.8313 12.4726 30.9121 12.5953 29.9876 12.6489C29.0341 12.7083 28.0621 12.7401 27.1221 12.7717C26.47 12.7929 25.7958 12.8148 25.133 12.8459C24.0121 12.8985 22.7841 12.9743 21.2679 13.0841C20.6562 13.1285 20.2986 13.3999 20.2609 13.8466C20.2104 14.4431 20.663 14.6664 21.0267 14.8466C21.1556 14.9103 21.2862 14.9725 21.4169 15.0352C21.9342 15.2593 22.426 15.5385 22.8835 15.8682C23.2148 16.1276 23.376 16.4599 23.3258 16.7804C23.2744 17.1085 23.01 17.3831 22.602 17.5338C22.2176 17.6529 21.819 17.7197 21.4167 17.7325C21.2897 17.7425 21.1628 17.7525 21.0376 17.7653C20.8944 17.7752 20.7509 17.7715 20.6085 17.7541C20.5155 17.746 20.4223 17.738 20.3295 17.7366H20.3035C19.863 17.7366 19.5911 17.9448 19.5162 18.3403C19.4321 18.7839 19.6449 19.1061 20.1155 19.2468C20.2021 19.2727 20.2909 19.2915 20.3804 19.3101C20.4951 19.3306 20.6081 19.3604 20.7179 19.3994C20.8323 19.4436 20.9478 19.4871 21.0634 19.529C21.4521 19.6601 21.8288 19.8245 22.1893 20.0203C22.7683 20.359 22.9051 20.7613 22.6765 21.4545C22.4323 22.1955 21.9455 22.6415 21.2292 22.7804C20.8083 22.851 20.3828 22.8915 19.9563 22.9015L19.7227 22.9129C19.3095 22.9346 18.7953 22.9615 18.6276 23.5397C18.4606 24.1153 18.8585 24.4064 19.2444 24.6338L19.3332 24.6864C19.6334 24.8631 19.9439 25.0457 20.2292 25.2499C20.8509 25.6948 21.0813 26.1169 20.9992 26.6608C20.9097 27.2552 20.4437 27.495 19.8897 27.7264C18.5306 28.2738 17.0538 28.4636 15.6004 28.278C13.9864 28.1001 12.2333 27.8468 10.0837 27.4808C8.46445 27.1796 6.93431 26.5162 5.60761 25.5403C4.32375 24.629 3.37954 23.242 2.80059 21.4157C1.69656 17.9303 2.2928 14.5453 4.57245 11.3548C4.78745 11.0423 5.05596 10.7702 5.36561 10.5511C6.02403 10.1101 6.89702 9.54096 7.8107 9.05096C9.07245 8.3743 10.3701 7.72289 11.6674 7.11482C14.0945 5.9771 15.9626 4.55623 17.3793 2.77061C17.5795 2.52091 17.8204 2.30679 18.092 2.13728C18.2335 2.04117 18.3992 1.98651 18.5702 1.97938C18.6297 1.97924 18.6888 1.98805 18.7456 2.00552C18.8646 2.05384 18.9718 2.1271 19.06 2.22038C19.1483 2.31366 19.2155 2.42477 19.2571 2.54623C19.666 3.47728 19.4251 4.40587 19.1693 5.11184C18.5304 6.87517 17.5528 7.81517 16.0928 8.06956C15.5775 8.15728 15.2811 8.47307 15.2793 8.93324Z" fill="#191919"/>
</svg>
