<svg width="26" height="29" viewBox="0 0 26 29" fill="none" xmlns="http://www.w3.org/2000/svg">
<g clip-path="url(#clip0_33_100)">
<path d="M7.31944 13.6065C6.58631 13.6455 5.85321 13.6831 5.12015 13.7197C5.07829 13.7217 5.03619 13.7228 4.99409 13.7239C4.86926 13.7239 4.74464 13.7342 4.62147 13.7549C4.22986 13.8319 4.03188 14.0559 4.07799 14.3678C4.10593 14.5557 4.26241 14.8633 4.47254 14.928C4.90253 15.0681 5.34853 15.1506 5.79935 15.1735C6.59035 15.2006 7.43842 15.197 8.46749 15.1621C11.2942 15.0664 14.1208 14.9673 16.9474 14.8645C18.4713 14.8102 19.9953 14.7561 21.5192 14.7022C21.6961 14.6957 21.8768 14.6971 22.1051 14.6989L22.2454 14.6999C22.1319 14.8183 22.0223 14.9322 21.9165 15.0421C21.5532 15.4199 21.2394 15.7463 20.926 16.0861C20.6286 16.4086 20.3324 16.7414 20.0459 17.0633C19.8493 17.2842 19.6521 17.5048 19.4543 17.7251C19.1347 18.0783 18.8127 18.4292 18.493 18.7774L18.0685 19.2399C18.051 19.259 18.0401 19.2833 18.037 19.3093C18.0339 19.3353 18.0389 19.3614 18.0514 19.3843L18.2679 19.7769C18.2784 19.7959 18.2937 19.8121 18.3123 19.823C18.3309 19.8341 18.352 19.8399 18.3734 19.8399C18.3875 19.8399 18.4015 19.8375 18.4147 19.8326C18.4541 19.8181 18.4933 19.8063 18.5312 19.795C18.6225 19.773 18.7097 19.736 18.7894 19.6857C20.9137 18.1823 22.9491 16.5523 24.8851 14.804C25.0754 14.6359 25.2442 14.4441 25.3874 14.2329C25.7032 13.7592 25.6293 13.2462 25.1897 12.8621C25.0774 12.7689 24.9581 12.6849 24.8327 12.6112L24.1353 12.1722C22.7264 11.2847 21.2698 10.3672 19.8327 9.47065C19.6211 9.31965 19.3814 9.21454 19.1285 9.16194C19.0112 9.15377 18.8937 9.17376 18.7853 9.22023C18.6769 9.2667 18.5807 9.33843 18.5043 9.42963C18.3893 9.59978 18.359 9.95902 18.4877 10.1346C18.7103 10.442 18.9818 10.7092 19.2908 10.9251C19.7953 11.2713 20.3167 11.61 20.8198 11.9375C21.2518 12.2183 21.6986 12.5088 22.1323 12.8022C22.2148 12.8583 22.3038 12.9077 22.3894 12.9553C22.6006 13.0516 22.786 13.1978 22.9307 13.3818C22.791 13.3686 22.653 13.3546 22.5164 13.3404C22.0779 13.2872 21.6372 13.2579 21.1957 13.253L20.8485 13.2558C18.0686 13.2779 15.194 13.3008 12.3676 13.3806C10.6841 13.4282 8.97359 13.5188 7.31944 13.6065Z" fill="#101010"/>
<path d="M11.1341 0.367506C10.7803 0.315884 6.27187 0.0471547 3.62849 0.0327148C3.25458 0.0526899 2.83774 0.0848647 2.43469 0.116031C2.13883 0.138893 1.84628 0.161569 1.57507 0.179017C0.878641 0.223901 0.443998 0.627621 0.318061 1.34696C0.247566 1.79856 0.205779 2.2543 0.192953 2.71139C0.0237401 6.38296 0.0618219 10.1152 0.0986124 13.7249C0.107417 14.5832 0.11528 15.4416 0.122197 16.3C0.135875 18.2213 0.176557 20.2414 0.246601 22.4758C0.278556 23.4929 0.332327 24.5256 0.384447 25.5244C0.41711 26.1514 0.449775 26.7785 0.477486 27.4057C0.512861 28.1956 0.81615 28.609 1.49311 28.7874C1.87575 28.8737 2.26608 28.9194 2.65791 28.9238L2.83243 28.9321C3.31589 28.9561 3.86917 28.9672 4.46206 28.9672C6.98657 28.9672 10.2176 28.777 11.6889 28.6807C11.8753 28.6685 12.0503 28.5844 12.1779 28.4453C12.3056 28.3061 12.3765 28.1224 12.376 27.9317C12.3755 27.7411 12.3037 27.5579 12.1753 27.4194C12.047 27.2809 11.8716 27.1976 11.6851 27.1865C10.7096 27.128 8.913 27.0181 7.841 26.9414C6.83752 26.8692 5.81623 26.8238 4.82843 26.7804C4.26089 26.7555 3.69335 26.7305 3.12604 26.7003C2.94301 26.687 2.76081 26.6638 2.5802 26.6307C2.51912 26.6207 2.45757 26.6106 2.39519 26.6011C2.38693 26.5491 2.37856 26.4993 2.37054 26.4513C2.3454 26.3186 2.32768 26.1844 2.31748 26.0495C2.27786 25.3207 2.23199 24.5799 2.18777 23.8634C2.08164 22.1576 1.97233 20.3935 1.94156 18.6586C1.8892 15.7183 1.89439 12.7271 1.9004 9.83425C1.90214 8.90721 1.90327 7.98018 1.90382 7.05298C1.90382 5.65942 1.93189 4.27517 1.95925 3.10482C1.96608 2.81157 1.99651 2.52035 2.03165 2.18294C2.0458 2.04757 2.06054 1.9062 2.07457 1.75567C2.48587 1.72727 3.33629 1.70656 4.3893 1.68117C7.08586 1.61595 10.7789 1.52641 11.4629 1.20513C11.4789 1.19761 11.493 1.18663 11.5044 1.17293C11.5159 1.15923 11.5242 1.14325 11.5289 1.12593C11.5613 1.03705 11.5744 0.941979 11.5674 0.847424C11.5604 0.752868 11.5334 0.660985 11.4883 0.578087C11.4478 0.518809 11.3952 0.46933 11.334 0.432959C11.2728 0.39659 11.2046 0.374204 11.1341 0.367506Z" fill="#101010"/>
</g>
<defs>
<clipPath id="clip0_33_100">
<rect width="25.5882" height="29" fill="white"/>
</clipPath>
</defs>
</svg>
