<svg width="32" height="32" viewBox="0 0 32 32" fill="none" xmlns="http://www.w3.org/2000/svg">
<path d="M15.8571 16.429C15.1507 16.429 14.4602 16.2195 13.8729 15.8271C13.2856 15.4347 12.8278 14.8769 12.5575 14.2243C12.2872 13.5717 12.2165 12.8536 12.3543 12.1608C12.4921 11.468 12.8322 10.8317 13.3317 10.3322C13.8312 9.83271 14.4675 9.49256 15.1603 9.35476C15.8531 9.21695 16.5712 9.28768 17.2238 9.55799C17.8764 9.82831 18.4342 10.2861 18.8266 10.8734C19.219 11.4607 19.4285 12.1512 19.4285 12.8576C19.4274 13.8044 19.0507 14.7122 18.3812 15.3817C17.7117 16.0512 16.8039 16.4279 15.8571 16.429ZM15.8571 10.7147C15.4333 10.7147 15.019 10.8404 14.6666 11.0758C14.3142 11.3113 14.0395 11.646 13.8773 12.0375C13.7151 12.4291 13.6727 12.8599 13.7554 13.2756C13.8381 13.6913 14.0422 14.0731 14.3418 14.3728C14.6415 14.6725 15.0234 14.8766 15.439 14.9592C15.8547 15.0419 16.2856 14.9995 16.6771 14.8373C17.0687 14.6751 17.4033 14.4005 17.6388 14.0481C17.8743 13.6957 17.9999 13.2814 17.9999 12.8576C17.9994 12.2894 17.7734 11.7447 17.3717 11.343C16.9699 10.9412 16.4252 10.7153 15.8571 10.7147Z" fill="#333333" stroke="black" stroke-width="0.25"/>
<path d="M15.8572 25L9.83144 17.8936C9.74771 17.7869 9.66485 17.6795 9.58287 17.5714C8.55357 16.2156 7.99751 14.5594 8.00001 12.8571C8.00001 10.7733 8.82781 8.7748 10.3013 7.3013C11.7748 5.8278 13.7733 5 15.8572 5C17.941 5 19.9395 5.8278 21.413 7.3013C22.8865 8.7748 23.7143 10.7733 23.7143 12.8571C23.7168 14.5587 23.161 16.214 22.1322 17.5693L22.1314 17.5714C22.1314 17.5714 21.9172 17.8529 21.885 17.8907L15.8572 25ZM10.7229 16.7107C10.7229 16.7107 10.89 16.9307 10.9279 16.9779L15.8572 22.7914L20.7929 16.97C20.8243 16.9307 20.9922 16.7086 20.9922 16.7086C21.833 15.6008 22.2874 14.2479 22.2857 12.8571C22.2857 11.1522 21.6084 9.51705 20.4028 8.31146C19.1972 7.10587 17.5621 6.42857 15.8572 6.42857C14.1522 6.42857 12.5171 7.10587 11.3115 8.31146C10.1059 9.51705 9.42858 11.1522 9.42858 12.8571C9.42708 14.2487 9.88128 15.6024 10.7229 16.7107Z" fill="#333333" stroke="#333333" stroke-width="0.5"/>
</svg>
