<svg width="29" height="25" viewBox="0 0 29 25" fill="none" xmlns="http://www.w3.org/2000/svg">
<path d="M1.30033 16.7514C2.06017 17.4543 3.0356 17.8346 4.2825 17.9139C4.93864 17.9555 5.60579 17.9498 6.25162 17.9448C6.53809 17.9425 6.82457 17.9406 7.11104 17.9418C7.20536 17.9425 7.29955 17.9418 7.38708 17.9418H7.4165L7.42025 17.9504C7.42693 17.9653 7.43266 17.9762 7.43465 17.9758C7.41121 18.5186 7.38756 19.0615 7.36366 19.6045C7.31808 20.6387 7.27086 21.7081 7.23055 22.7603C7.22362 23.1033 7.23876 23.4465 7.27589 23.7876C7.28993 23.9399 7.34682 24.0851 7.44 24.2064C7.53317 24.3278 7.65885 24.4206 7.80255 24.474C8.53434 24.7847 9.32356 24.9384 10.1189 24.9251C10.407 24.9244 10.695 24.9091 10.9816 24.8792C11.4887 24.8275 11.6071 24.5907 11.6577 24.1432C11.8523 22.3668 11.8544 20.5748 11.6643 18.798C11.6399 18.5644 11.6225 18.3302 11.6021 18.0595C11.597 17.991 11.5917 17.9203 11.586 17.8472C11.7283 17.9251 11.866 18.0006 11.9992 18.0736C12.3904 18.2876 12.7599 18.4897 13.119 18.6953C14.0297 19.2166 14.9475 19.7622 15.835 20.2895C17.7214 21.411 19.6722 22.5696 21.6739 23.5691C21.804 23.6339 21.9329 23.702 22.0615 23.7699C22.7196 24.1177 23.3997 24.4765 24.2525 24.4133C24.85 24.3684 25.1107 24.2776 25.093 23.5966C25.0878 23.3962 25.077 23.1931 25.0666 22.997C25.0499 22.6846 25.0329 22.3617 25.0383 22.0465C25.0735 20.0372 25.123 18.0738 25.1672 16.4187C25.1747 16.1383 25.2003 15.854 25.225 15.5788C25.2335 15.4833 25.2421 15.3883 25.2499 15.2937C25.9772 15.2024 26.6541 14.8749 27.1761 14.3618C27.698 13.8487 28.0361 13.1786 28.1381 12.4548C28.2691 11.524 28.1676 10.796 27.8187 10.1651C27.2427 9.12238 26.2114 8.68721 25.2715 8.37132V8.27484C25.2715 8.14879 25.2726 8.02775 25.2707 7.90649C25.2601 7.22565 25.2489 6.54475 25.237 5.86375C25.2095 4.23712 25.181 2.55511 25.1675 0.901023C25.1638 0.463523 24.9876 0.246818 24.8404 0.141678C24.6193 -0.0159163 24.2976 -0.0415119 23.9577 0.0715722C23.8263 0.120058 23.7004 0.182036 23.5821 0.256504C23.5412 0.280452 23.5 0.304411 23.4589 0.326607C23.34 0.391678 23.2219 0.458377 23.1038 0.5252C22.8952 0.643074 22.6796 0.764924 22.4636 0.87427C21.8299 1.19428 21.1946 1.51143 20.558 1.82576C19.2788 2.46081 17.9562 3.11738 16.6747 3.8009C15.1648 4.60639 13.5903 5.51819 11.9951 6.51118C11.9302 6.55149 11.8662 6.59296 11.8032 6.63291C11.2976 6.9571 10.861 7.23746 10.2524 7.02028C10.1759 6.99826 10.0956 6.99256 10.0167 7.00357C10 7.00485 9.98341 7.00615 9.967 7.00685C9.69752 7.01935 9.42803 7.02882 9.15785 7.03817C8.53568 7.06002 7.89242 7.08255 7.26136 7.1433C5.84913 7.27975 4.79136 7.49901 3.83128 7.85403C2.41508 8.37775 1.49766 9.09377 0.944158 10.1074C0.289479 11.2672 -0.00194599 12.5958 0.107451 13.9222C0.18443 14.7963 0.388774 15.9075 1.30033 16.7514ZM10.1106 17.6522V23.5423H8.88038L8.71636 17.9158L10.1106 17.6522ZM2.39269 10.4007C2.82949 9.70241 3.55266 9.18885 4.48321 8.91537C5.26157 8.67955 6.05665 8.50256 6.8617 8.38593C7.68691 8.27319 8.5071 8.20406 9.37543 8.13081C9.70432 8.10312 10.0364 8.07509 10.3731 8.04424L10.2537 16.1006L10.1457 16.1161C9.99217 16.142 9.83723 16.1582 9.6817 16.1651C9.11695 16.1777 8.54447 16.2158 7.99074 16.2528C6.77969 16.3331 5.5274 16.4163 4.2989 16.2358L4.27195 16.2319C4.03024 16.1969 3.77985 16.1598 3.5427 16.1019C2.5415 15.8582 1.94699 15.2606 1.72484 14.2744C1.56879 13.6172 1.54755 12.9353 1.66239 12.2695C1.77724 11.6039 2.0258 10.9682 2.39317 10.4007H2.39269ZM11.9629 8.01878C13.3326 7.0571 22.2176 2.59611 23.8484 2.04121C23.9402 6.71048 23.8718 11.4613 23.8065 16.0574C23.7759 18.1944 23.7443 20.4022 23.7287 22.589C22.2324 21.8076 20.757 20.975 19.3286 20.1686C16.9371 18.8187 14.465 17.4233 11.9095 16.2831C12.0557 13.0665 12.0727 10.4362 11.9634 8.01878H11.9629ZM25.292 13.5795V9.67871C26.1525 9.93268 26.7118 10.7863 26.6677 11.8087C26.6302 12.6876 26.0603 13.4098 25.2925 13.5792L25.292 13.5795Z" fill="#00C2FF"/>
</svg>
