<svg width="27" height="25" viewBox="0 0 27 25" fill="none" xmlns="http://www.w3.org/2000/svg">
<path d="M21.383 21.6036C21.3316 21.8151 21.2837 21.9905 21.2466 22.1683C21.0079 23.314 20.3282 24.0367 19.1823 24.2797C18.7529 24.3784 18.3138 24.429 17.8733 24.4306C16.4218 24.408 14.9719 24.3469 13.4229 24.2974C12.6074 25.0789 11.496 24.921 10.4191 24.8549C10.178 24.844 9.942 24.7818 9.72662 24.6727C9.51123 24.5636 9.32137 24.4099 9.16955 24.2219C9.01935 24.0337 8.91489 23.8132 8.86446 23.5777C8.81403 23.3421 8.81902 23.098 8.87901 22.8647C8.939 22.6315 9.05236 22.4154 9.21012 22.2337C9.36787 22.0519 9.56569 21.9095 9.78788 21.8176C10.7936 21.4131 11.8375 21.444 12.878 21.6945C13.0054 21.7188 13.1219 21.7824 13.2114 21.8765C13.4614 22.202 13.7994 22.2013 14.1565 22.1998C15.4079 22.195 16.6593 22.2033 17.9106 22.2025C18.1128 22.2071 18.3152 22.1949 18.5154 22.1658C19.2016 22.0487 19.3942 21.8062 19.4637 21.1007C19.8458 17.2214 19.6345 13.3313 19.6497 9.44683C19.6528 8.66019 19.5252 7.87051 19.4287 7.08592C19.2848 5.91351 18.72 4.92978 18.0088 4.0148C17.0016 2.71997 15.7116 1.87097 14.0717 1.71472C11.9521 1.51279 9.96346 1.8716 8.34329 3.41729C7.80699 3.93425 7.46098 4.61787 7.36155 5.35695C7.1992 6.42817 7.10684 7.51061 6.99986 8.5897C6.88912 9.70598 6.76537 10.8223 6.70516 11.9418C6.64699 13.0237 6.66849 14.1098 6.64333 15.1938C6.63086 15.7268 6.57334 16.259 6.57087 16.7918C6.56883 17.232 6.64979 17.6734 6.63721 18.1127C6.61506 18.8838 6.58753 19.6587 6.4898 20.4226C6.41174 21.0333 6.1294 21.3043 5.54935 21.3291C4.28861 21.383 3.04926 21.269 1.93571 20.5785C0.950315 19.9676 0.392303 19.0841 0.222534 17.9385C0.0215846 16.5819 -0.0651815 15.2294 0.328653 13.8915C0.618949 12.9049 1.16309 12.0826 2.02494 11.5126C2.52506 11.1695 3.05666 10.875 3.61254 10.6331C4.07744 10.4408 4.59847 10.3847 5.15476 10.2541C5.19842 9.88252 5.25465 9.44994 5.29937 9.01621C5.41442 7.9008 5.51011 6.78323 5.63923 5.66943C5.89523 3.46361 7.10351 1.9394 9.06343 0.987036C10.5975 0.245495 12.302 -0.0700648 13.9991 0.0732449C15.6316 0.183051 17.1794 0.841385 18.3924 1.94187C20.1373 3.50868 21.2581 5.43099 21.4768 7.81471C21.5188 8.27226 21.5436 8.73131 21.5879 9.18853C21.6065 9.38088 21.6551 9.57019 21.6968 9.79767C22.4188 9.64599 23.1682 9.69225 23.8662 9.93153C25.244 10.3786 26.1598 11.299 26.5825 12.6832C26.9069 13.7461 27.0728 14.8222 26.9037 15.9504C26.7126 17.2261 26.3847 18.4395 25.6532 19.5118C24.7514 20.8346 23.4944 21.5281 21.8901 21.5754C21.745 21.5798 21.6001 21.5915 21.383 21.6036ZM21.729 11.2463C21.6897 14.0588 21.6505 16.8821 21.6113 19.7002C22.923 19.8309 23.868 19.1563 24.353 18.2591C25.2549 16.5922 25.4299 14.8432 24.9722 13.0141C24.5999 11.5256 22.9373 10.8931 21.7292 11.2463H21.729ZM5.07735 11.6003C4.82565 11.6365 4.61589 11.6208 4.45106 11.6994C4.03841 11.8964 3.64146 12.1281 3.24687 12.3603C2.17171 12.9925 1.73723 13.9913 1.72013 15.1859C1.70997 15.8849 1.75198 16.5837 1.84582 17.2765C1.90668 17.7221 2.01043 18.2158 2.26041 18.5712C2.95497 19.5591 4.04186 19.6628 5.07735 19.715V11.6003Z" fill="#101010"/>
</svg>
