<svg width="29" height="25" viewBox="0 0 29 25" fill="none" xmlns="http://www.w3.org/2000/svg">
<g clip-path="url(#clip0_83_148)">
<path d="M1.30036 16.7514C2.0602 17.4543 3.03563 17.8346 4.28253 17.9139C4.93867 17.9555 5.60582 17.9498 6.25165 17.9448C6.53812 17.9425 6.8246 17.9406 7.11107 17.9418C7.20539 17.9425 7.29958 17.9418 7.38711 17.9418H7.41653L7.42028 17.9504C7.42696 17.9653 7.43269 17.9762 7.43468 17.9758C7.41125 18.5186 7.38759 19.0615 7.36369 19.6045C7.31811 20.6387 7.27089 21.7081 7.23058 22.7603C7.22365 23.1033 7.23879 23.4465 7.27592 23.7876C7.28997 23.9399 7.34685 24.0851 7.44003 24.2064C7.53321 24.3278 7.65888 24.4206 7.80259 24.474C8.53437 24.7847 9.32359 24.9384 10.1189 24.9251C10.407 24.9244 10.695 24.9091 10.9816 24.8792C11.4887 24.8275 11.6071 24.5907 11.6578 24.1432C11.8523 22.3668 11.8544 20.5748 11.6643 18.798C11.6399 18.5644 11.6225 18.3302 11.6021 18.0595C11.5971 17.991 11.5917 17.9203 11.5861 17.8472C11.7283 17.9251 11.866 18.0006 11.9992 18.0736C12.3905 18.2876 12.7599 18.4897 13.119 18.6953C14.0298 19.2166 14.9475 19.7622 15.8351 20.2895C17.7215 21.411 19.6722 22.5696 21.6739 23.5691C21.8041 23.6339 21.933 23.702 22.0615 23.7699C22.7196 24.1177 23.3998 24.4765 24.2525 24.4133C24.8501 24.3684 25.1108 24.2776 25.0931 23.5966C25.0878 23.3962 25.077 23.1931 25.0666 22.997C25.05 22.6846 25.033 22.3617 25.0384 22.0465C25.0735 20.0372 25.1231 18.0738 25.1672 16.4187C25.1747 16.1383 25.2003 15.854 25.225 15.5788C25.2336 15.4833 25.2421 15.3883 25.25 15.2937C25.9772 15.2024 26.6541 14.8749 27.1761 14.3618C27.6981 13.8487 28.0361 13.1786 28.1382 12.4548C28.2691 11.524 28.1677 10.796 27.8188 10.1651C27.2428 9.12238 26.2114 8.68721 25.2715 8.37132V8.27484C25.2715 8.14879 25.2726 8.02775 25.2707 7.90649C25.2602 7.22565 25.2489 6.54475 25.2371 5.86375C25.2095 4.23712 25.1811 2.55511 25.1675 0.901023C25.1638 0.463523 24.9876 0.246818 24.8405 0.141678C24.6194 -0.0159163 24.2976 -0.0415119 23.9577 0.0715722C23.8264 0.120058 23.7004 0.182036 23.5821 0.256504C23.5412 0.280452 23.5001 0.304411 23.4589 0.326607C23.34 0.391678 23.2219 0.458377 23.1038 0.5252C22.8952 0.643074 22.6797 0.764924 22.4636 0.87427C21.83 1.19428 21.1947 1.51143 20.558 1.82576C19.2789 2.46081 17.9563 3.11738 16.6747 3.8009C15.1649 4.60639 13.5904 5.51819 11.9951 6.51118C11.9302 6.55149 11.8663 6.59296 11.8032 6.63291C11.2976 6.9571 10.861 7.23746 10.2525 7.02028C10.1759 6.99826 10.0956 6.99256 10.0167 7.00357C10.0001 7.00485 9.98344 7.00615 9.96704 7.00685C9.69755 7.01935 9.42806 7.02882 9.15788 7.03817C8.53572 7.06002 7.89245 7.08255 7.26139 7.1433C5.84917 7.27975 4.79139 7.49901 3.83132 7.85403C2.41511 8.37775 1.49769 9.09377 0.944189 10.1074C0.28951 11.2672 -0.00191547 12.5958 0.107481 13.9222C0.184461 14.7963 0.388805 15.9075 1.30036 16.7514ZM10.1107 17.6522V23.5423H8.88041L8.71639 17.9158L10.1107 17.6522ZM2.39272 10.4007C2.82952 9.70241 3.55269 9.18885 4.48324 8.91537C5.2616 8.67955 6.05668 8.50256 6.86173 8.38593C7.68694 8.27319 8.50713 8.20406 9.37546 8.13081C9.70435 8.10312 10.0364 8.07509 10.3731 8.04424L10.2537 16.1006L10.1457 16.1161C9.9922 16.142 9.83726 16.1582 9.68173 16.1651C9.11698 16.1777 8.5445 16.2158 7.99077 16.2528C6.77972 16.3331 5.52743 16.4163 4.29893 16.2358L4.27198 16.2319C4.03027 16.1969 3.77988 16.1598 3.54273 16.1019C2.54153 15.8582 1.94702 15.2606 1.72487 14.2744C1.56882 13.6172 1.54758 12.9353 1.66242 12.2695C1.77727 11.6039 2.02583 10.9682 2.3932 10.4007H2.39272ZM11.9629 8.01878C13.3326 7.0571 22.2177 2.59611 23.8484 2.04121C23.9403 6.71048 23.8718 11.4613 23.8066 16.0574C23.7759 18.1944 23.7444 20.4022 23.7288 22.589C22.2324 21.8076 20.7571 20.975 19.3287 20.1686C16.9372 18.8187 14.465 17.4233 11.9095 16.2831C12.0557 13.0665 12.0727 10.4362 11.9634 8.01878H11.9629ZM25.292 13.5795V9.67871C26.1525 9.93268 26.7119 10.7863 26.6677 11.8087C26.6302 12.6876 26.0603 13.4098 25.2925 13.5792L25.292 13.5795Z" fill="#FFB602"/>
</g>
<defs>
<clipPath id="clip0_83_148">
<rect width="28.2374" height="25" fill="white"/>
</clipPath>
</defs>
</svg>
