<svg width="21" height="25" viewBox="0 0 21 25" fill="none" xmlns="http://www.w3.org/2000/svg">
<path d="M6.45968 17.5143C6.6072 17.8208 6.82189 18.0902 7.08782 18.3023C7.35374 18.5143 7.66408 18.6638 7.99571 18.7394C9.97966 19.2396 11.8607 18.9686 13.4747 17.6701C14.8165 16.5906 15.257 15.0484 15.2613 13.3873C15.2519 12.3125 15.002 11.2535 14.5298 10.288C13.5282 10.4145 13.3981 10.3885 12.6587 9.92362C11.1355 10.977 9.61689 12.0272 8.10276 13.0741C8.04483 13.1141 7.98527 13.1519 7.92477 13.1873C7.28527 13.5656 6.99753 13.514 6.50946 12.9095C5.90926 13.3227 5.30866 13.7414 4.70166 14.1508C4.48746 14.3041 4.26002 14.4379 4.02205 14.5508C3.63264 14.7216 3.33036 14.631 3.11812 14.2688C2.84291 13.799 2.60318 13.3087 2.3434 12.8298C2.19186 12.5502 2.24485 12.3284 2.5037 12.1456C3.30692 11.578 4.10822 11.0097 4.90753 10.4406C4.90879 10.4207 4.9066 10.4009 4.90105 10.3817C4.32111 9.3772 4.47995 9.39934 5.20608 8.76827C7.09693 7.10729 9.07896 5.55305 11.1429 4.11282C11.9678 3.54347 12.7596 2.92596 13.5671 2.33131C14.1598 1.89479 14.343 1.90716 14.8791 2.4123C14.9292 2.45952 14.9856 2.49996 15.0448 2.5481C16.0774 1.79708 17.1075 1.06046 18.1228 0.303872C18.6269 -0.0722601 18.9365 -0.0670309 19.3352 0.424636C19.6012 0.752744 19.8495 1.09475 20.0792 1.44923C20.479 2.06651 20.3624 2.49863 19.7556 2.92301C18.9338 3.49739 18.1264 4.09255 17.3167 4.68411C17.1498 4.80613 17.0001 4.9516 16.8165 5.10839C16.923 5.25243 16.9995 5.36385 17.084 5.46848C17.4843 5.96426 17.4255 6.32866 16.8937 6.69996C16.5488 6.9408 16.2125 7.19376 15.882 7.43461C15.9175 7.76578 15.9437 8.06013 15.9834 8.35272C15.993 8.43832 16.0249 8.51989 16.0759 8.58936C17.0232 9.7587 17.4847 11.134 17.7169 12.5883C17.9535 14.0668 17.8934 15.5344 17.3428 16.953C16.5609 18.9672 15.0576 20.2395 13.1181 21.0637C12.9447 21.1374 12.7677 21.2029 12.5888 21.2737L13.2598 22.9205C13.4386 22.936 13.6973 22.9514 13.9544 22.9822C14.7503 23.0773 15.1801 23.7991 14.8675 24.5273C14.7352 24.8359 14.4457 24.8648 14.1553 24.8732C13.2759 24.8989 12.3967 24.9462 11.5174 24.948C10.0041 24.9509 8.49087 24.9267 6.9776 24.91C6.85416 24.9081 6.73143 24.8908 6.61224 24.8586C6.23261 24.7572 6.10639 24.5258 6.21102 24.1423C6.40289 23.4358 6.91194 23.0123 7.64919 22.9489C7.82336 22.934 7.99823 22.927 8.17127 22.9165L8.61369 21.8416C7.3747 21.6672 6.14515 21.4624 5.10194 20.7229C4.04731 19.9752 3.37853 18.9342 2.90754 17.6913C2.45548 17.6913 1.98355 17.7052 1.51297 17.6864C1.19695 17.6774 0.882524 17.6382 0.573982 17.5693C0.43367 17.5412 0.307456 17.4653 0.216965 17.3544C0.126473 17.2436 0.077298 17.1047 0.0778648 16.9616C0.0673377 16.8191 0.10614 16.6772 0.187728 16.5599C0.269317 16.4425 0.38873 16.3568 0.526008 16.317C0.758213 16.2385 1.00109 16.1959 1.24617 16.191C3.25276 16.1811 5.25943 16.1807 7.26615 16.1895C7.45808 16.1977 7.64793 16.2327 7.83013 16.2935C8.04917 16.3586 8.23517 16.5242 8.19258 16.7485C8.13821 16.943 8.02138 17.1144 7.86007 17.236C7.73384 17.3369 7.5358 17.3595 7.36481 17.3904C7.07562 17.4419 6.7818 17.4716 6.45968 17.5143ZM16.0243 5.90788C15.0543 5.14101 14.6992 3.99716 13.95 3.14582C12.4514 3.96166 5.95409 8.92156 5.49216 9.60088L7.41997 12.1626L12.045 8.95272C11.8953 8.05416 11.7409 7.1452 12.692 6.54407C13.5459 6.00467 14.4101 5.81868 15.2878 6.51539L16.0243 5.90788ZM15.0483 9.97093C15.761 11.294 15.9737 11.861 16.0124 13.4309C16.0606 15.3879 15.468 17.1436 13.8425 18.3437C11.9788 19.7196 9.84969 20 7.62407 19.4628C6.68282 19.2358 5.99269 18.5962 5.42726 17.8226C5.34074 17.7044 5.20093 17.5345 5.09219 17.5395C4.71997 17.5563 4.32696 17.5122 3.97984 17.6986C4.22357 18.8961 5.28335 20.1545 6.4634 20.6184C7.41969 20.9813 8.4376 21.1543 9.4601 21.1274C10.7657 21.1035 12.0487 20.7828 13.212 20.1893C15.0757 19.2593 16.3608 17.8389 16.7665 15.7507C17.0854 14.1073 16.8865 12.4938 16.3096 10.9283C16.1251 10.4276 15.9023 9.94069 15.682 9.4125L15.0483 9.97093ZM16.3857 4.2268L19.0171 2.05604L18.493 1.18863C17.5081 1.8768 16.5517 2.54513 15.5663 3.23381C15.7792 3.5047 15.9492 3.72546 16.1245 3.94182C16.2003 4.03534 16.2873 4.12021 16.3855 4.2268H16.3857ZM12.7129 7.62064C12.8077 8.00972 12.8487 8.36303 12.9804 8.67898C13.2911 9.42816 13.8518 9.55172 14.4864 9.04657C14.9199 8.70161 14.9866 8.29408 14.7016 7.73328C14.4937 7.32443 14.1277 7.16228 13.6419 7.29428C13.3564 7.37154 13.0828 7.48864 12.7125 7.62064H12.7129ZM9.42378 21.8892L9.22656 22.7163H11.9471C11.8486 22.2945 11.7664 21.9429 11.6853 21.5962L9.42378 21.8892ZM7.18603 24.0958C9.41792 24.1421 11.6503 24.1667 13.8948 23.9436C13.761 23.8246 13.6128 23.7238 13.4627 23.7218C13.0812 23.7168 12.699 23.7768 12.3175 23.7733C11.0893 23.763 9.86133 23.7354 8.63324 23.7136C8.12367 23.7048 7.61935 23.7184 7.18643 24.0958H7.18603ZM5.44494 11.2382L3.22472 12.7228L3.80402 13.4093C4.52645 12.8921 5.27646 12.5017 5.8315 11.8231L5.44494 11.2382Z" fill="#101010"/>
</svg>
