<svg width="50" height="45" viewBox="0 0 50 45" fill="none" xmlns="http://www.w3.org/2000/svg">
<g clip-path="url(#clip0_13_62)">
<path d="M24.5746 23.1673C21.0135 22.9777 17.8409 22.3722 15.1945 20.1706C13.2705 18.5699 12.1302 16.4974 11.6616 14.0707C10.6363 8.76869 13.5547 4.16879 17.9391 1.90748C20.9931 0.332272 24.2096 -0.276919 27.6282 0.25115C30.5455 0.701569 32.6794 2.34662 34.4074 4.61902C34.9925 5.38862 35.6793 6.11969 36.0864 6.97846C36.927 8.75439 37.6419 10.5762 37.1568 12.6462C36.7029 14.582 36.1408 16.4498 34.8762 18.0319C32.6559 20.8098 29.8506 22.5739 26.2549 22.9662C25.6131 23.0359 24.9746 23.1192 24.5746 23.1673ZM14.7765 12.9487C15.162 15.8203 16.5848 17.877 19.2453 18.9395C20.3217 19.3334 21.4412 19.5986 22.5803 19.729C26.2591 20.2489 29.4168 19.2949 31.7561 16.2634C32.8089 14.9608 33.3216 13.3056 33.189 11.6378C30.212 11.0863 27.5186 10.089 25.3362 7.91766C22.5238 11.1116 18.7986 12.2795 14.7758 12.9487H14.7765Z" fill="#101010"/>
<path d="M30.7413 44.6461C26.2542 44.6461 21.7669 44.6231 17.2803 44.6528C13.4074 44.6786 9.53566 44.7895 5.66208 44.8067C4.58725 44.8138 3.51462 44.7081 2.46197 44.4913C0.494106 44.0783 -0.140584 42.9686 0.35453 41.0171C0.74764 39.4682 1.55085 38.1075 2.3971 36.7772C5.83414 31.3663 10.754 27.8247 16.6773 25.5553C19.8924 24.2969 23.3092 23.6293 26.7626 23.5843C31.7651 23.547 36.4107 24.7564 40.4004 27.9842C43.2384 30.2487 45.5656 33.0841 47.2306 36.3059C47.7221 37.2609 48.2483 38.2053 48.6458 39.1993C48.998 40.0561 49.2501 40.9507 49.397 41.8651C49.6086 43.2884 48.8362 44.2384 47.418 44.4094C46.423 44.5386 45.4214 44.6104 44.4179 44.6246C39.8591 44.647 35.3002 44.6344 30.7413 44.6344V44.6461ZM45.8481 41.2552C45.8645 41.0669 45.8955 40.9884 45.8733 40.9294C44.4093 37.0545 42.3338 33.5795 39.1381 30.8634C37.2641 29.2708 35.1959 27.9991 32.7812 27.3724C29.5677 26.5668 26.2196 26.4475 22.9566 27.0225C14.8665 28.3547 8.40355 32.2799 3.99181 39.2985C3.52251 40.0453 3.14873 40.8521 2.70567 41.6768C4.17779 42.1027 5.5181 41.933 6.8794 41.8507C9.52582 41.691 12.1812 41.633 14.8339 41.6186C23.1614 41.5736 31.4894 41.5788 39.8169 41.5393C41.6798 41.5305 43.5425 41.4195 45.405 41.3498C45.5551 41.3302 45.7033 41.2984 45.8481 41.2546V41.2552Z" fill="#101010"/>
</g>
<defs>
<clipPath id="clip0_13_62">
<rect width="49.5324" height="45" fill="white"/>
</clipPath>
</defs>
</svg>
