<svg width="23" height="22" viewBox="0 0 23 22" fill="none" xmlns="http://www.w3.org/2000/svg">
<g clip-path="url(#clip0_603_152660)">
<path d="M14.1836 18.6901C14.0281 19.727 13.7215 20.6811 12.8041 21.3038C12.1804 21.7402 11.4289 21.957 10.6679 21.9198C8.92525 21.8378 7.83149 20.8753 7.45876 19.0576C7.30877 19.0576 7.14559 19.0529 6.98272 19.0584C5.16469 19.1208 3.34692 19.1879 1.5287 19.2433C1.26699 19.2506 1.00538 19.2261 0.749565 19.1706C0.570711 19.1281 0.403572 19.0463 0.260359 18.9313C0.205501 18.8936 0.160863 18.8431 0.130435 18.7839C0.100005 18.7248 0.0847435 18.6591 0.0860104 18.5928C0.0872773 18.5263 0.105058 18.4612 0.137718 18.4033C0.170377 18.3455 0.216908 18.2966 0.273161 18.261C1.66946 17.2912 2.23181 15.8169 2.69644 14.2888C3.06638 13.072 3.14357 11.8115 3.18397 10.5492C3.23483 8.9554 3.49287 7.40965 4.08878 5.91476C4.8648 3.96776 6.27221 2.71709 8.21161 2.02076C8.489 1.92121 8.62378 1.80049 8.68141 1.4985C8.86782 0.521631 9.47233 0.0472702 10.4635 0.0415391C11.4309 0.0363626 12.1801 0.602234 12.3664 1.51976C12.3789 1.63042 12.4239 1.73493 12.4958 1.82009C12.5677 1.90525 12.6633 1.96729 12.7704 1.99833C14.2632 2.56857 15.3962 3.55773 16.2255 4.92404C17.3354 6.75245 17.9973 8.73243 18.3597 10.8272C18.4775 11.5083 18.641 12.1814 18.7783 12.8592C19.1043 14.4676 19.9629 15.7007 21.3548 16.5813C21.6083 16.7485 21.8168 16.9751 21.9622 17.2413C22.1636 17.6117 22.0078 18.0012 21.6049 18.1365C21.2268 18.261 20.8338 18.3345 20.4363 18.3551C18.4967 18.4607 16.5558 18.5408 14.6155 18.6324C14.4801 18.6394 14.3455 18.6681 14.1836 18.6901ZM16.832 11.9508C16.8654 11.8668 16.8891 11.8369 16.8856 11.8109C16.8499 11.5521 16.8088 11.2945 16.7709 11.0361C16.4899 9.11782 15.9268 7.29949 14.9323 5.6175C13.7633 3.64055 11.7451 2.66486 9.49438 3.10496C7.84803 3.42682 6.49512 4.2427 5.72364 5.78667C5.38353 6.46766 5.07509 7.19875 4.94297 7.94093C4.72849 9.14621 4.6657 10.3787 4.55026 11.6008C4.51181 12.0075 4.50836 12.4176 4.48539 12.9022C8.64324 12.5807 12.7593 12.3827 16.832 11.9508ZM2.64605 17.8622C8.13192 17.4748 13.5129 17.3615 18.9547 16.7722C17.9826 15.7727 17.5567 14.5933 17.2098 13.3922L4.36126 13.8914C4.19514 15.3141 3.6421 16.6267 2.64605 17.8622ZM8.46083 18.9779C8.68782 20.0656 9.70228 20.7311 10.8751 20.6092C11.9437 20.4982 12.5672 19.8426 12.5773 18.7517L8.46083 18.9779ZM9.5911 1.59171H11.1505C10.9345 1.16298 10.5952 1.10456 10.2393 1.1163C9.93408 1.12647 9.67309 1.23444 9.59138 1.59171H9.5911Z" fill="#191919"/>
<circle cx="17" cy="5" r="4.5" fill="#59CE8F" stroke="white"/>
</g>
<defs>
<clipPath id="clip0_603_152660">
<rect width="22.1429" height="22" fill="white"/>
</clipPath>
</defs>
</svg>
