<svg width="30" height="29" viewBox="0 0 30 29" fill="none" xmlns="http://www.w3.org/2000/svg">
<path d="M18.6973 24.6369C18.4924 26.0037 18.0883 27.2614 16.879 28.0823C16.0568 28.6576 15.0661 28.9433 14.0631 28.8943C11.7659 28.7861 10.3241 27.5174 9.8328 25.1214C9.63508 25.1214 9.41999 25.1152 9.20529 25.1225C6.80879 25.2046 4.41264 25.2931 2.0159 25.3662C1.67092 25.3758 1.32607 25.3435 0.988856 25.2703C0.753094 25.2142 0.532775 25.1065 0.343993 24.9549C0.271681 24.9052 0.21284 24.8386 0.17273 24.7606C0.132619 24.6827 0.112501 24.5961 0.114171 24.5086C0.115841 24.421 0.139278 24.3352 0.182331 24.2589C0.225381 24.1827 0.286717 24.1182 0.360869 24.0713C2.20145 22.793 2.94272 20.8495 3.55519 18.8352C4.04284 17.2312 4.1446 15.5697 4.19784 13.9057C4.26489 11.8048 4.60503 9.76725 5.39055 7.79671C6.41348 5.23021 8.26871 3.5816 10.8252 2.66371C11.1908 2.53248 11.3685 2.37336 11.4445 1.97528C11.6902 0.687582 12.487 0.0622885 13.7936 0.0547339C15.0688 0.0479104 16.0563 0.793832 16.3019 2.0033C16.3184 2.14917 16.3778 2.28693 16.4725 2.39919C16.5673 2.51145 16.6933 2.59322 16.8345 2.63414C18.8023 3.38582 20.2958 4.68971 21.389 6.49076C22.8519 8.90093 23.7245 11.5109 24.2022 14.2722C24.3575 15.17 24.5731 16.0573 24.7541 16.9507C25.1837 19.0709 26.3155 20.6963 28.1503 21.8572C28.4844 22.0776 28.7593 22.3763 28.951 22.7272C29.2165 23.2154 29.011 23.7288 28.4799 23.9072C27.9816 24.0713 27.4636 24.1682 26.9395 24.1953C24.3828 24.3345 21.8244 24.4401 19.2667 24.5609C19.0882 24.5701 18.9108 24.6079 18.6973 24.6369ZM22.1884 15.7533C22.2324 15.6425 22.2637 15.6032 22.259 15.5689C22.212 15.2278 22.1579 14.8882 22.108 14.5476C21.7374 12.0189 20.9953 9.62203 19.6842 7.40487C18.1433 4.79889 15.4829 3.51275 12.5161 4.09287C10.3459 4.51715 8.56255 5.59263 7.5456 7.62787C7.09727 8.52553 6.69068 9.48924 6.51653 10.4676C6.23381 12.0563 6.15103 13.681 5.99886 15.292C5.94818 15.8281 5.94363 16.3686 5.91335 17.0075C11.3942 16.5836 16.8199 16.3227 22.1884 15.7533ZM3.48876 23.5456C10.7201 23.035 17.8132 22.8856 24.9865 22.1088C23.7051 20.7912 23.1437 19.2366 22.6865 17.6534L5.74972 18.3114C5.53075 20.1868 4.80175 21.917 3.48876 23.5456ZM11.1537 25.0164C11.4529 26.4501 12.7902 27.3273 14.3362 27.1666C15.7448 27.0204 16.5667 26.1561 16.58 24.7182L11.1537 25.0164ZM12.6436 2.09814H14.6991C14.4144 1.533 13.9672 1.45599 13.498 1.47147C13.0957 1.48487 12.7517 1.62719 12.644 2.09814H12.6436Z" fill="#101010"/>
</svg>
