<svg
width="26"
height="25"
viewBox="0 0 26 25"
fill="none"
xmlns="http://www.w3.org/2000/svg"
>
<g clip-path="url(#clip0_603_167387)">
  <path
    d="M6.59755 5.97978C6.59755 5.62911 6.34558 5.40368 6.16553 5.14441C5.64389 4.39363 5.10139 3.65658 4.59657 2.89475C4.18486 2.30251 3.89542 1.63483 3.74502 0.930456C3.72159 0.802072 3.72921 0.669999 3.76731 0.545145C3.80541 0.42029 3.87292 0.306263 3.96412 0.212503C4.05225 0.117461 4.16708 0.0510308 4.29371 0.0219044C4.42034 -0.00722203 4.55285 0.00229159 4.67397 0.0492067C5.05001 0.214385 5.31104 0.505805 5.56244 0.804354C6.57298 2.00436 7.57844 3.20865 8.57881 4.41728C9.53999 5.57342 10.515 6.71864 11.4521 7.89364C12.4704 9.17054 13.4515 10.4768 14.45 11.7693C14.7298 12.1314 14.9976 12.5042 15.2987 12.8479C16.6358 14.3742 17.835 16.0064 19.0578 17.6221C19.5304 18.2465 20.0621 18.8263 20.5417 19.4457C21.6613 20.8919 22.7711 22.3454 23.8713 23.8064C24.1293 24.1496 24.0257 24.6538 23.7106 24.8461C23.5651 24.922 23.3998 24.9517 23.2368 24.9312C23.0739 24.9106 22.9212 24.8407 22.7995 24.7311C22.6149 24.5471 22.4378 24.3552 22.2656 24.1597C20.796 22.4921 19.3268 20.8241 17.858 19.1559C17.775 19.0543 17.6663 18.9764 17.543 18.9303C17.4197 18.8841 17.2863 18.8713 17.1564 18.8933C16.7045 18.9682 16.2559 19.0623 15.8053 19.1453C13.3533 19.5977 10.9751 19.2616 8.64678 18.4594C6.59296 17.7517 4.64042 16.8342 2.87468 15.5604C2.3396 15.1842 1.83466 14.7672 1.36438 14.3134C0.999322 13.9404 0.681968 13.524 0.419492 13.0737C-0.157796 12.1128 -0.0896115 11.6654 0.703178 10.8075C2.17254 9.22273 3.84588 7.838 5.67972 6.68918C6.00605 6.48338 6.40953 6.36996 6.59755 5.97978ZM10.1934 10.0534C9.669 9.22208 8.99815 8.51596 8.28871 7.84833C8.17036 7.73672 7.91961 7.71987 7.73597 7.73449C7.54194 7.76235 7.35524 7.82755 7.18629 7.92644C5.26237 8.92466 3.53309 10.1988 1.91532 11.6288C1.85214 11.6798 1.8 11.743 1.762 11.8146C1.72402 11.8862 1.70095 11.9646 1.69424 12.0453C1.68753 12.126 1.69729 12.2073 1.72295 12.2841C1.74861 12.3609 1.78961 12.4317 1.84351 12.4924C2.2775 12.9798 2.77836 13.404 3.33129 13.7526C5.24893 15.028 7.33807 15.9401 9.54188 16.5892C11.3199 17.1125 13.1399 17.2062 14.9773 16.9709C15.1157 16.9583 15.2483 16.9096 15.3617 16.8296C15.4751 16.7496 15.5652 16.6412 15.6229 16.5154C15.4424 16.2769 15.2454 16.021 15.053 15.7617C14.564 15.1027 14.016 14.5787 13.0869 14.8418C12.9573 14.8595 12.8261 14.8603 12.6964 14.844C11.306 14.8451 9.62258 13.6988 9.86332 11.5879C9.92109 11.0797 10.0766 10.5829 10.1934 10.053V10.0534Z"
    fill="#191919"
  />
  <path
    d="M20.7112 17.3375C20.2369 17.0816 19.9284 16.6759 19.6504 16.2109C19.5633 16.0684 19.5298 15.8996 19.5556 15.7348C19.5815 15.57 19.6652 15.4195 19.7918 15.3101C19.8475 15.2621 19.9068 15.2185 19.9694 15.1798C20.6951 14.735 21.3667 14.2082 21.9705 13.6098C24.3239 11.2915 24.1961 11.8595 21.9705 9.67991C20.5907 8.32946 18.8455 7.55314 16.9996 7.02546C15.8641 6.7009 14.7035 6.49967 13.512 6.54554C13.185 6.55826 12.8572 6.55088 12.53 6.55881C12.035 6.57097 11.646 6.34923 11.3251 6.00236C11.1498 5.81262 11.0088 5.59131 10.8516 5.38483C10.7543 5.25682 10.8731 4.96619 11.0339 4.91307C12.3105 4.49131 13.6193 4.53683 14.9233 4.69476C18.5019 5.12824 21.5099 6.74833 24.1092 9.17176C24.5344 9.56819 24.884 10.0507 25.2364 10.5174C25.5042 10.8935 25.6455 11.3443 25.6402 11.8051C25.6455 12.0583 25.6376 12.3552 25.5147 12.5607C24.3653 14.4833 23.0387 16.2452 20.9458 17.2636C20.8692 17.2933 20.7909 17.3179 20.7112 17.3375Z"
    fill="#191919"
  />
  <path
    d="M16.5868 11.4166C16.5549 11.6692 16.3667 12.2372 16.2727 12.1209C15.5378 11.2169 14.428 9.89377 13.7234 8.96587C13.6944 8.91707 13.6782 8.86186 13.676 8.80524C13.6739 8.74862 13.6859 8.69237 13.711 8.64154C13.7556 8.5975 13.8093 8.56366 13.8683 8.54235C13.9273 8.52106 13.9904 8.51281 14.0528 8.51821C14.6341 8.61026 15.1745 8.87196 15.606 9.27012C16.2707 9.87548 16.6801 10.6758 16.5868 11.4166Z"
    fill="#191919"
  />
</g>
<defs>
  <clipPath id="clip0_603_167387">
    <rect width="25.6897" height="25" fill="white" />
  </clipPath>
</defs>
</svg>