<svg width="22" height="22" viewBox="0 0 22 22" fill="none" xmlns="http://www.w3.org/2000/svg">
<path d="M0.798706 21.9083C0.337376 21.9034 0.0955554 21.6671 0.0867558 21.2605C0.0854082 21.1457 0.099919 21.0311 0.129888 20.9203C0.468114 19.6362 0.826151 18.3571 1.14477 17.0679C1.28339 16.4427 1.58567 15.8658 2.02037 15.3971C3.20588 14.1474 4.37208 12.8788 5.57146 11.6429C8.72655 8.39175 12.0354 5.30357 15.4312 2.3084C16.1685 1.65811 16.8939 0.993292 17.6482 0.363459C18.0971 -0.0112139 18.269 -0.00265556 18.7223 0.386139C19.369 0.940943 19.9921 1.5238 20.6192 2.10128C20.9569 2.41206 21.2806 2.73813 21.6131 3.05459C22.0435 3.46432 22.0426 3.90211 21.6322 4.33682C20.9792 5.02852 20.3435 5.73626 19.6896 6.42691C19.4543 6.67554 19.1826 6.88891 18.9364 7.12745C15.084 10.86 11.2321 14.5933 7.38101 18.3273C6.7696 18.9196 6.15742 19.5116 5.53081 20.0875C5.3684 20.226 5.18221 20.3334 4.98139 20.4046C3.7768 20.8705 2.56909 21.3282 1.35826 21.7775C1.17516 21.8348 0.988151 21.8785 0.798706 21.9083ZM4.14968 17.8989L17.1252 5.36179C16.8415 5.09443 16.5712 4.83965 16.2536 4.54011C11.7971 8.55131 7.74287 12.9501 3.52968 17.2271L4.14968 17.8989ZM5.35643 19.1456C9.68764 14.9377 14.0351 10.858 18.1872 6.59015L17.8076 6.10404C13.3293 10.1593 9.06974 14.3544 4.70522 18.4172L5.35643 19.1456ZM2.9436 16.6884C7.084 12.3035 11.2396 8.0577 15.5984 3.96878L15.1508 3.56904C10.7302 7.54201 6.53134 11.7187 2.50744 16.0935C2.61132 16.2239 2.6841 16.3101 2.75096 16.401C2.80979 16.4802 2.86144 16.5646 2.94399 16.6884H2.9436ZM20.8142 3.83898C20.0921 2.91162 18.5433 1.38631 18.0854 1.14489L16.0404 2.93487L19.1395 5.68556C19.7074 5.05995 20.2536 4.45748 20.8146 3.83898H20.8142ZM1.90464 16.657C1.74519 17.4816 1.60112 18.2003 1.47285 18.9217C1.45709 19.0318 1.48371 19.1438 1.54728 19.2348C1.84179 19.6044 2.15437 19.9595 2.47222 20.3335L4.37772 19.601L1.90464 16.657Z" fill="#101010"/>
</svg>
