<svg width="26" height="25" viewBox="0 0 26 25" fill="none" xmlns="http://www.w3.org/2000/svg">
<path d="M13.3358 4.0208C15.6591 4.08659 17.8823 4.6036 19.9485 5.68857C21.4667 6.47976 22.8589 7.49736 24.0786 8.70739C24.4413 9.08933 24.7835 9.49081 25.1035 9.91007C25.4986 10.3997 25.5651 11.0048 25.5918 11.5993C25.5878 11.8646 25.5112 12.1236 25.3704 12.3474C24.0242 14.6168 22.2619 16.4309 19.8494 17.5528C16.4371 19.1397 12.9389 19.5053 9.32971 18.3697C6.68218 17.5362 4.20836 16.3472 2.03155 14.5754C1.41297 14.0718 0.853623 13.5167 0.463337 12.8119C0.312079 12.5191 0.179429 12.2169 0.0662033 11.907C-0.0671827 11.5716 0.0147222 11.2461 0.189616 10.9572C0.332658 10.7349 0.49725 10.5277 0.680966 10.3385C1.9755 8.92756 3.41876 7.66451 4.98496 6.57197C6.44753 5.55459 8.09515 4.84174 9.83208 4.47485C10.9807 4.22738 12.1407 3.96922 13.3358 4.0208ZM1.56775 11.7303C1.9586 12.4097 2.55138 12.826 3.14539 13.238C5.21809 14.6756 7.48973 15.669 9.91008 16.3259C12.4566 17.0172 14.9583 16.8145 17.4376 15.9639C19.9376 15.1058 21.8894 13.4945 23.5655 11.4884C23.6137 11.4429 23.6478 11.3842 23.6638 11.3195C23.6701 11.1945 23.6943 11.027 23.6281 10.9497C22.8564 10.0487 22.0678 9.16133 21.0815 8.48914C16.5457 5.39963 11.7996 5.21385 6.93135 7.54742C5.03086 8.45833 3.38042 9.78578 1.83824 11.234C1.70485 11.3583 1.65201 11.5692 1.5672 11.7303H1.56775Z" fill="black"/>
<path d="M16.4568 11.2059C16.4667 11.8478 16.2415 12.4707 15.8247 12.9544C14.9692 13.9526 13.9146 14.5338 12.5654 14.4475C12.1237 14.4267 11.6925 14.3049 11.304 14.0912C10.9155 13.8775 10.5798 13.5774 10.3221 13.2135C10.0644 12.8496 9.89147 12.4314 9.81619 11.9901C9.74091 11.5489 9.76528 11.0961 9.88745 10.6657C10.0315 10.1576 10.2573 9.67695 10.5558 9.24329C11.8894 7.35068 14.3523 7.64973 15.5687 8.79243C16.2361 9.41952 16.4705 10.2246 16.4568 11.2059ZM13.0331 10.0817C12.4352 10.0494 11.891 10.3551 11.7611 10.7399C11.607 11.1968 11.6173 11.6512 11.9452 12.0434C12.0286 12.1434 12.1303 12.226 12.2448 12.2866C12.4755 12.4135 12.737 12.4714 12.999 12.4537C13.261 12.436 13.5125 12.3434 13.7246 12.1866C14.501 11.6599 14.4456 10.6957 13.6154 10.2891C13.4266 10.2055 13.232 10.1362 13.0331 10.0817Z" fill="black"/>
</svg>
