<svg width="30" height="25" viewBox="0 0 30 25" fill="none" xmlns="http://www.w3.org/2000/svg">
<g clip-path="url(#clip0_56_516)">
<path d="M24.8092 17.1581C24.517 17.09 24.1269 17.1274 23.9289 17.6877C23.6471 18.4839 23.138 19.1283 22.6773 19.6536C21.3651 21.1497 19.6531 22.2007 17.5899 22.7773C16.031 23.2129 14.1773 23.601 12.2478 23.1748C9.37038 22.5391 7.02849 20.953 5.28738 18.4599C4.51384 17.3522 4.06984 16.2939 3.93002 15.2234C3.68164 13.4009 3.76486 11.5484 4.17559 9.75565C4.27863 9.31492 4.41655 8.87199 4.5639 8.39914C4.58592 8.32881 4.60812 8.25753 4.63049 8.18525C4.72879 8.37071 4.81333 8.52629 4.90841 8.68221L4.93267 8.72158C5.11469 9.03481 5.31758 9.33537 5.54009 9.62116C5.85125 10.0031 6.29802 10.1184 6.6522 9.90824C6.93184 9.74207 7.15102 9.34551 6.84588 8.77471C6.50063 8.12935 6.03843 7.2833 5.52507 6.46164C5.144 5.85151 4.6674 5.68634 3.97991 5.92654C2.82046 6.33171 1.70859 6.76704 0.773831 7.13903C0.50859 7.24369 0.280328 7.42501 0.118204 7.65993C-0.0193596 7.87545 0.00810064 8.23107 0.112322 8.43581C0.25279 8.71297 0.55639 8.78988 0.92466 8.64171C1.6469 8.35076 2.38071 8.07676 3.13134 7.79853C3.24276 7.75715 3.36223 7.7231 3.48204 7.69077C2.82961 9.20327 2.46905 10.9091 2.38107 12.8964C2.27653 15.2541 2.63369 17.0025 3.53866 18.5651C5.10348 21.2664 7.42921 23.2138 10.4514 24.3535C11.3525 24.6909 12.3 24.888 13.2607 24.9382C13.505 24.9518 13.7536 24.9586 13.9995 24.9586C15.418 24.9511 16.828 24.7376 18.1853 24.3246C20.4886 23.6457 22.3237 22.5397 23.7954 20.9418C24.5126 20.1633 24.9678 19.4268 25.2274 18.6239C25.303 18.414 25.3483 18.1942 25.3619 17.9715C25.3762 17.4076 25.0694 17.2178 24.8092 17.1581Z" fill="#101010"/>
<path d="M29.3075 11.5335C29.1551 11.3331 28.891 11.2469 28.5825 11.297C28.2462 11.3508 27.9291 11.5683 27.722 11.7409C27.3735 12.0319 27.0401 12.3452 26.6875 12.6766L26.6755 12.6875C26.6499 12.7115 26.6241 12.7354 26.5983 12.7598C26.734 11.5992 26.7227 10.4262 26.5647 9.26846C26.2479 6.88701 25.128 4.68557 23.3911 3.0292C21.657 1.38297 19.4128 0.376083 16.9011 0.117139C14.3163 -0.148809 11.7252 0.282763 9.20014 1.40129C8.40422 1.7541 7.48551 2.21469 6.71197 2.95607C6.50283 3.17007 6.33691 3.42253 6.22335 3.69959C6.14064 3.88763 6.24782 4.27073 6.4539 4.36535C6.55836 4.40252 6.66969 4.4163 6.78003 4.40581C6.89038 4.3953 6.99712 4.36078 7.09273 4.30457C7.21536 4.22912 7.33001 4.1414 7.43503 4.0428C7.50762 3.97562 7.58487 3.91359 7.6661 3.85722C10.8497 1.775 14.2463 1.06832 17.761 1.75593C19.9136 2.17759 21.6703 3.21889 22.9822 4.85068C24.4952 6.73258 25.1959 8.97071 25.0651 11.5029C25.0326 11.9677 24.976 12.4305 24.8956 12.8893C24.879 12.9949 24.8626 13.1005 24.8463 13.2062C24.7144 13.0588 24.5787 12.9066 24.4508 12.7514C24.1741 12.4152 23.8989 12.0776 23.625 11.7384L23.6084 11.718C23.4128 11.4767 23.2172 11.2354 23.0173 10.9909C22.9313 10.8785 22.8342 10.7749 22.7276 10.6818C22.4435 10.4475 22.1138 10.4307 21.8456 10.6368C21.7202 10.7287 21.633 10.8638 21.6008 11.0161C21.5687 11.1685 21.5938 11.3273 21.6714 11.4623C21.7771 11.6706 21.9012 11.8689 22.0424 12.0549C22.843 13.0865 23.6291 14.0853 24.2926 14.9263C24.5723 15.2806 24.8354 15.4387 25.1459 15.4387C25.3621 15.4293 25.5733 15.3699 25.7627 15.2651C26.9526 14.6602 28.031 13.857 28.952 12.8898C29.1121 12.7276 29.2435 12.5392 29.3407 12.333C29.4778 12.0328 29.4656 11.7409 29.3075 11.5335Z" fill="#101010"/>
</g>
<defs>
<clipPath id="clip0_56_516">
<rect width="29.4702" height="25" fill="white"/>
</clipPath>
</defs>
</svg>
