<svg width="23" height="16" viewBox="0 0 23 16" fill="none" xmlns="http://www.w3.org/2000/svg">
<g clip-path="url(#clip0_603_154094)">
<path d="M0.0185533 14.85C-0.0377875 15.2141 0.260814 15.6295 0.67044 15.7572C0.884903 15.8241 1.1072 15.8626 1.33166 15.8717C1.51904 15.8786 1.70643 15.8869 1.89382 15.8954C2.33242 15.9147 2.78155 15.9347 3.23053 15.9347C3.41092 15.9347 3.59129 15.9315 3.77068 15.9236C4.64402 15.8861 5.53075 15.8301 6.38823 15.776C7.41536 15.7114 8.47732 15.6446 9.52207 15.6084C12.2419 15.5142 14.9721 15.1399 17.6125 14.7779L17.9551 14.7309C18.5741 14.6462 19.2142 14.5585 19.8383 14.4346C19.8659 14.4292 19.8944 14.4244 19.9234 14.4195C20.1741 14.3767 20.5529 14.3124 20.6504 13.7362C20.6557 13.705 20.6493 13.673 20.6325 13.6462C20.6156 13.6195 20.5895 13.5999 20.559 13.5912C20.4934 13.5725 20.4327 13.5519 20.3751 13.5322C20.2572 13.4859 20.1334 13.4556 20.0073 13.4425L19.6095 13.419C18.6915 13.3647 17.7423 13.3087 16.8069 13.2837C14.1561 13.2112 11.5033 13.2802 8.85987 13.4904C7.1569 13.6279 5.42295 13.7404 3.74597 13.8492C2.89648 13.9044 2.04695 13.9606 1.19746 14.018C1.01605 14.026 0.836417 14.057 0.662816 14.1102C0.495861 14.1587 0.346389 14.2542 0.232169 14.3855C0.117949 14.5166 0.0437677 14.6779 0.0185533 14.85Z" fill="#191919"/>
<path d="M0.472989 8.31091C0.468849 8.44718 0.503396 8.58183 0.5726 8.69925C0.641803 8.81669 0.742816 8.9121 0.863988 8.97443C1.06981 9.07559 1.29351 9.13524 1.52234 9.15003C1.82579 9.16865 2.1442 9.18466 2.46751 9.18466C2.62566 9.18466 2.78487 9.18079 2.94402 9.17154C3.89344 9.11704 4.8571 9.05255 5.78953 8.9903C7.5351 8.8738 9.34002 8.7528 11.1163 8.69193C13.5343 8.60868 15.9653 8.31155 18.3163 8.02418C18.9327 7.94918 19.5485 7.87511 20.1642 7.80204C20.2131 7.79641 20.2628 7.7918 20.3133 7.78718C20.6736 7.75405 21.1222 7.7128 21.58 7.22218C21.5942 7.20696 21.6045 7.18853 21.6099 7.16849C21.6154 7.14845 21.616 7.12741 21.6115 7.10713C21.6072 7.08683 21.5978 7.0679 21.5844 7.05198C21.5712 7.03605 21.5542 7.02359 21.535 7.01566C20.6986 6.67141 19.9753 6.62428 19.2466 6.60315L18.6106 6.58478C16.5963 6.52615 14.5138 6.46553 12.4571 6.54465C8.99996 6.6779 5.6144 7.01455 1.8643 7.4083C1.51178 7.44681 1.16818 7.54424 0.847884 7.69654C0.733827 7.75311 0.638085 7.84084 0.571746 7.94956C0.505406 8.05828 0.471178 8.18355 0.472989 8.31091Z" fill="#191919"/>
<path d="M1.18402 1.79391C1.42783 1.91291 1.69154 1.98561 1.96187 2.00829C2.11011 2.01929 2.25844 2.03063 2.40685 2.04229C3.09181 2.09529 3.79828 2.15002 4.4981 2.15002C4.5522 2.15002 4.60639 2.15004 4.66048 2.14904C5.98343 2.13242 7.32801 2.10153 8.62836 2.07166C10.3536 2.03216 12.1376 1.99127 13.8918 1.98314C16.4028 1.97152 18.9252 1.68427 21.3649 1.40652L21.4431 1.39767C21.5969 1.36818 21.7438 1.31032 21.8764 1.22705C21.9653 1.18005 22.0659 1.12704 22.1896 1.06979C22.2117 1.05962 22.2305 1.04338 22.2437 1.02297C22.257 1.00256 22.2641 0.978821 22.2643 0.954493C22.2647 0.930164 22.2581 0.906258 22.2453 0.885553C22.2325 0.86485 22.2141 0.848181 22.1922 0.837519C22.0648 0.775019 21.9576 0.715024 21.8631 0.661524C21.7147 0.561596 21.548 0.492127 21.3725 0.457148L20.8932 0.399408C19.962 0.286908 18.9991 0.170024 18.0463 0.130274C12.9127 -0.0842259 7.70014 0.117162 2.65932 0.312037L1.75465 0.346918C1.61784 0.352309 1.48192 0.371609 1.34901 0.404536C1.19698 0.433186 1.05807 0.509636 0.952466 0.622767C0.846863 0.735898 0.780053 0.879804 0.761847 1.03353C0.738424 1.18913 0.767164 1.34811 0.843524 1.48566C0.919885 1.62321 1.03962 1.73159 1.18402 1.79391Z" fill="#191919"/>
</g>
<defs>
<clipPath id="clip0_603_154094">
<rect width="22.3614" height="16" fill="white"/>
</clipPath>
</defs>
</svg>
