<svg width="32" height="25" viewBox="0 0 32 25" fill="none" xmlns="http://www.w3.org/2000/svg">
<path d="M30.9851 13.5275C30.9986 11.1275 30.9238 9.0283 30.7564 7.11025C30.5221 4.42506 29.029 2.94576 26.4386 2.83117C25.3386 2.78256 24.2188 2.81962 23.1358 2.85435C22.6435 2.87043 22.1345 2.8872 21.6342 2.89554C21.4725 2.8982 21.3117 2.89737 21.1731 2.89667H21.0987C21.0422 2.73521 20.9882 2.57782 20.935 2.42342C20.8049 2.04529 20.6809 1.68755 20.5458 1.33315C20.5407 1.31545 20.536 1.29752 20.5309 1.27992C20.4671 1.03469 20.3356 0.812465 20.1514 0.638825C19.8108 0.242876 19.3405 0.0506108 18.7433 0.0657728C17.9328 0.0869534 17.1083 0.101998 16.3109 0.116466C15.0892 0.138688 13.8258 0.16162 12.5836 0.207453C11.9166 0.23199 11.5515 0.348449 11.3151 0.645324C11.1595 0.737657 11.0321 0.870812 10.9467 1.03047C10.6507 1.66092 10.4807 2.34329 10.4462 3.03915H10.2455C9.92686 3.03915 9.63255 3.03826 9.33812 3.04011C8.98548 3.04208 8.63271 3.04208 8.27995 3.04219C7.42161 3.04219 6.53391 3.04218 5.66102 3.07158C4.59771 3.11084 3.55115 3.3493 2.57549 3.77468C1.20257 4.36496 0.51633 5.33474 0.477404 6.73821C0.451069 7.69203 0.414113 8.66184 0.378421 9.59958C0.347466 10.4123 0.31539 11.2527 0.290325 12.0798C0.276926 12.5247 0.276187 12.9771 0.275379 13.4146C0.273993 14.1835 0.272521 14.9786 0.201946 15.7518C0.0232568 17.7084 0.0547772 19.2784 0.301154 20.6927C0.523852 21.9703 1.12125 23.0028 2.02914 23.6788C2.85569 24.3116 3.85932 24.6692 4.89905 24.7011C5.44224 24.7165 5.98539 24.7333 6.5285 24.7513C7.87797 24.7947 9.27328 24.8395 10.6468 24.8503C13.557 24.8734 16.2861 24.885 18.9063 24.885C20.1067 24.885 21.2868 24.8826 22.4461 24.8778C23.7563 24.8726 25.1721 24.8121 26.775 24.6927C28.7963 24.5422 30.1701 23.4311 30.7465 21.4784C30.9427 20.8248 31.0473 20.1469 31.0574 19.4645C31.0631 18.4719 31.0419 17.4634 31.0216 16.488C31.0006 15.5172 30.9791 14.514 30.9851 13.5275ZM29.2912 16.6866C29.3018 17.6313 29.3129 18.5761 29.3244 19.5209C29.3335 20.2563 29.1613 20.9827 28.8234 21.6356C28.5155 22.2374 28.061 22.5947 27.4691 22.6967C26.8184 22.8271 26.1584 22.9047 25.4954 22.9289C23.1491 22.9464 20.7632 22.9437 18.4556 22.9415C17.6218 22.9406 16.7883 22.94 15.9548 22.9396C15.1027 22.9396 14.251 22.94 13.3996 22.9407C11.3424 22.9422 9.21552 22.9439 7.12392 22.9324C6.3382 22.9266 5.55336 22.8791 4.77265 22.7901C3.32269 22.6267 2.29271 21.6145 2.01769 20.0828C1.71206 18.3814 1.74708 16.6359 1.78081 14.9484C1.7867 14.6539 1.79238 14.3596 1.79677 14.0653C1.80377 13.5681 1.81432 13.0692 1.82841 12.5687C2.13862 12.6298 2.45302 12.6674 2.76888 12.6811C3.52314 12.7063 4.28975 12.7042 5.03131 12.7023C5.38453 12.7015 5.73762 12.7003 6.0905 12.7023C6.22761 12.7031 6.36296 12.7109 6.5197 12.72C6.56174 12.7225 6.60484 12.7249 6.64943 12.7274C6.64943 12.8689 6.64854 13.0067 6.64784 13.1416C6.64611 13.512 6.64434 13.8618 6.65162 14.2121C6.66721 14.9604 6.97688 15.3168 7.68702 15.4042C8.35827 15.4774 9.03319 15.5116 9.70839 15.5069H9.7323C11.0321 15.5069 11.5227 15.006 11.539 13.6666C11.5418 13.4305 11.5411 13.194 11.5403 12.9531V12.7305H20.2189C20.2189 12.7587 20.2189 12.7866 20.2189 12.8141C20.218 12.9582 20.2171 13.0918 20.221 13.2247C20.2281 13.4686 20.2353 13.6718 20.2566 13.8826C20.3363 14.6752 20.6839 15.0126 21.4578 15.0471C22.0752 15.0746 22.7366 15.0702 23.4232 15.0328C24.0942 14.9967 24.5005 14.6185 24.5982 13.9388C24.6405 13.6442 24.6589 13.343 24.6782 13.0245C24.6853 12.907 24.6927 12.7857 24.7013 12.6592L25.6686 12.6598C26.6225 12.6604 27.5557 12.6612 28.4886 12.6567C28.7402 12.658 28.9917 12.6465 29.2421 12.6219C29.2605 13.9878 29.2759 15.3503 29.2912 16.6866ZM13.6977 1.66659C14.4964 1.63708 15.3065 1.62598 16.1015 1.61799C16.9428 1.63871 17.807 1.65932 18.6593 1.67275C18.7305 1.67255 18.8014 1.67999 18.8709 1.69496C18.9518 1.7816 19.0039 1.89134 19.0197 2.00895C19.0735 2.24251 19.1436 2.47197 19.2296 2.69565C19.2455 2.79643 19.263 2.8971 19.282 2.99772H12.0502C12.3423 1.71694 12.3616 1.71613 13.6983 1.66671L13.6977 1.66659ZM23.1037 12.7291C23.0993 12.7665 23.095 12.8035 23.0908 12.8405C23.0741 13.0259 23.0441 13.2098 23.0012 13.3909C22.9725 13.4663 22.9161 13.5278 22.8436 13.5629C22.4946 13.6005 22.1426 13.6172 21.77 13.6349C21.6713 13.6395 21.5714 13.6443 21.4697 13.6495L21.3658 12.7291H23.1037ZM9.86056 12.742V13.8481H8.06958L7.92417 12.7995C8.30073 12.6621 9.21371 12.6341 9.86113 12.742H9.86056ZM29.0825 10.9056C29.0436 10.9084 29.005 10.9111 28.9661 10.9127C28.7634 10.921 28.5608 10.9308 28.3581 10.9407C27.9181 10.9619 27.463 10.9839 27.0164 10.9898C24.9394 11.0174 22.8625 11.043 20.7856 11.0666C18.9318 11.0886 17.078 11.1113 15.2244 11.1347C11.6701 11.181 8.11586 11.2296 4.56177 11.2806L1.86523 11.3183C1.89423 10.4561 1.92797 9.59727 1.96135 8.75283C1.97891 8.31 1.99622 7.86728 2.01323 7.42469C2.07722 5.73928 2.38513 5.34551 3.95187 4.94621C4.91683 4.69665 5.90789 4.56245 6.90435 4.54643C8.97262 4.52131 11.0761 4.52482 13.1106 4.52806C14.7674 4.53084 16.481 4.53373 18.1662 4.521C19.1249 4.51394 20.0973 4.47005 21.0381 4.42769C21.7862 4.39401 22.5598 4.35918 23.3202 4.34321C24.3628 4.3211 25.4413 4.29841 26.4984 4.40848C28.0486 4.5697 28.7624 5.29146 28.9619 6.89945C29.084 7.77734 29.1603 8.66103 29.1907 9.5469C29.1992 9.99614 29.2073 10.4466 29.2147 10.8981C29.1705 10.8997 29.1262 10.9028 29.083 10.9056H29.0825Z" fill="#101010"/>
</svg>
