<svg width="283" height="211" viewBox="0 0 283 211" fill="none" xmlns="http://www.w3.org/2000/svg">
<rect x="20.9492" y="54.4816" width="136.116" height="16.4856" transform="rotate(9.46961 20.9492 54.4816)" fill="#F2C46F" stroke="black" stroke-width="2.5"/>
<rect x="19.4354" y="36.5114" width="136.116" height="16.4856" transform="rotate(-5.53039 19.4354 36.5114)" fill="#F2C46F" stroke="black" stroke-width="2.5"/>
<rect x="23.5913" y="73.1476" width="124.762" height="72.2485" transform="rotate(9.46961 23.5913 73.1476)" fill="#1A2C50" stroke="black" stroke-width="2.5"/>
<rect x="34.6338" y="84.5822" width="99.2148" height="26.3586" transform="rotate(9.46961 34.6338 84.5822)" fill="#F2C46F" stroke="black" stroke-width="2.5"/>
<rect x="30.1196" y="111.648" width="49.067" height="26.3586" transform="rotate(9.46961 30.1196 111.648)" fill="#F2C46F" stroke="black" stroke-width="2.5"/>
<rect x="79.584" y="119.899" width="49.067" height="26.3586" transform="rotate(9.46961 79.584 119.899)" fill="#F2C46F" stroke="black" stroke-width="2.5"/>
<circle cx="25.0932" cy="63.7374" r="2.3251" transform="rotate(9.46961 25.0932 63.7374)" fill="#1A2C50" stroke="black" stroke-width="1.5"/>
<circle cx="25.8332" cy="44.3797" r="2.3251" transform="rotate(-5.53039 25.8332 44.3797)" fill="#1A2C50" stroke="black" stroke-width="1.5"/>
<path d="M150.038 75.2256L137.747 91.4015" stroke="black" stroke-width="2.5"/>
<path d="M150.58 23.0099L142.926 41.8284" stroke="black" stroke-width="2.5"/>
<path d="M138.839 73.3575L126.548 89.5333" stroke="black" stroke-width="2.5"/>
<path d="M139.281 24.1232L131.627 42.9417" stroke="black" stroke-width="2.5"/>
<path d="M127.639 71.4893L115.348 87.6651" stroke="black" stroke-width="2.5"/>
<path d="M127.982 25.2355L120.328 44.054" stroke="black" stroke-width="2.5"/>
<path d="M116.44 69.6212L104.149 85.797" stroke="black" stroke-width="2.5"/>
<path d="M116.681 26.3488L109.027 45.1673" stroke="black" stroke-width="2.5"/>
<path d="M105.24 67.753L92.9495 83.9288" stroke="black" stroke-width="2.5"/>
<path d="M105.382 27.4621L97.7282 46.2806" stroke="black" stroke-width="2.5"/>
<path d="M94.0409 65.8848L81.7503 82.0606" stroke="black" stroke-width="2.5"/>
<path d="M94.0828 28.5754L86.4289 47.3938" stroke="black" stroke-width="2.5"/>
<path d="M82.8412 64.0167L70.5506 80.1925" stroke="black" stroke-width="2.5"/>
<path d="M82.7835 29.6887L75.1295 48.5071" stroke="black" stroke-width="2.5"/>
<path d="M71.642 62.1495L59.3513 78.3253" stroke="black" stroke-width="2.5"/>
<path d="M71.4836 30.801L63.8297 49.6194" stroke="black" stroke-width="2.5"/>
<path d="M60.4423 60.2813L48.1516 76.4571" stroke="black" stroke-width="2.5"/>
<path d="M60.1838 31.9142L52.5299 50.7327" stroke="black" stroke-width="2.5"/>
<path d="M49.2426 58.4131L36.9519 74.589" stroke="black" stroke-width="2.5"/>
<path d="M48.8845 33.0275L41.2306 51.846" stroke="black" stroke-width="2.5"/>
<circle cx="154.37" cy="154.37" r="52.8703" fill="#F2C46F" stroke="black" stroke-width="3"/>
<circle cx="154.37" cy="154.37" r="46.3458" fill="#1A2C50" stroke="black" stroke-width="3"/>
<circle cx="154.37" cy="130.447" r="9.37405" fill="#F2C46F" stroke="black" stroke-width="3"/>
<circle cx="154.37" cy="154.37" r="2.89975" fill="#F2C46F"/>
<circle cx="178.293" cy="154.37" r="9.37405" transform="rotate(90 178.293 154.37)" fill="#F2C46F" stroke="black" stroke-width="3"/>
<circle cx="154.37" cy="178.293" r="9.37405" fill="#F2C46F" stroke="black" stroke-width="3"/>
<circle cx="130.447" cy="154.37" r="9.37405" transform="rotate(90 130.447 154.37)" fill="#F2C46F" stroke="black" stroke-width="3"/>
<path d="M149.296 207.522C173.46 209.576 197.649 214.264 221.427 191.936C251.15 164.026 255.142 137.734 281.234 142.64" stroke="black" stroke-width="2.5" stroke-linecap="round"/>
</svg>
