<svg width="31" height="30" viewBox="0 0 31 30" fill="none" xmlns="http://www.w3.org/2000/svg">
<g clip-path="url(#clip0_33_134)">
<path d="M30.6004 18.1312C30.4235 19.4024 29.8454 20.5425 29.2616 21.662C28.2763 23.5787 26.8948 25.2638 25.2088 26.6056C23.2163 28.1859 20.9378 29.132 18.4475 29.5687C16.9038 29.8395 15.3487 30.0366 13.7721 29.9565C9.9711 29.7633 6.69011 28.4341 4.02349 25.6438C2.89206 24.4401 1.93037 23.0876 1.16509 21.6236C0.723181 20.8008 0.557263 19.9402 0.408413 19.0582C0.133304 17.4264 -0.0360047 15.7961 0.14485 14.1283C0.368126 12.0685 0.936794 10.1379 1.96469 8.34359C3.21082 6.12672 4.91822 4.20319 6.9715 2.70297C9.01624 1.22104 11.3305 0.461843 13.8308 0.15996C16.4814 -0.18132 19.175 0.0993443 21.6984 0.979661C24.1741 1.84878 26.3837 3.17493 27.8778 5.39907C29.372 7.62322 30.4088 10.0251 30.7606 12.7435C31.0527 14.999 30.7539 17.0285 30.6004 18.1312ZM29.1563 14.7687C29.1438 13.1854 28.9947 11.6193 28.4202 10.1469C27.947 8.93376 27.3846 7.08556 26.427 6.12782C25.0966 4.27736 23.2446 3.14754 21.1474 2.40081C18.7562 1.53185 16.187 1.26794 13.669 1.63259C11.0961 2.00376 8.79096 2.94811 6.85252 4.70343C6.28051 5.2225 5.73557 5.77057 5.21981 6.34558C3.02948 8.78299 1.84847 11.6942 1.84972 16.483C1.85048 19.4687 3.32341 22.0208 5.43305 24.202C7.67233 26.5174 10.3718 27.6781 13.5291 27.9374C15.0624 28.063 16.5739 27.8961 18.0817 27.6633C22.5904 26.9673 25.8086 24.5297 27.8837 20.4819C29.1344 18.0421 29.0808 15.6654 29.1563 14.7687Z" fill="#101010"/>
<path d="M16.8452 14.4795C17.1541 14.4795 17.3857 14.4795 17.6174 14.4795C19.5702 14.4821 21.5228 14.4815 23.4754 14.492C23.7309 14.494 23.9852 14.527 24.2328 14.5903C24.361 14.6169 24.4761 14.6872 24.5582 14.7891C24.6404 14.8911 24.6847 15.0185 24.6835 15.1494C24.6963 15.2801 24.6643 15.4112 24.5928 15.5214C24.5213 15.6315 24.4143 15.7141 24.2897 15.7554C23.9661 15.8627 23.6279 15.9193 23.287 15.9231C21.3776 15.906 19.4683 15.8629 17.5591 15.8296C17.1514 15.8224 16.7433 15.8311 16.3363 15.8104C16.1233 15.8031 15.9125 15.7651 15.7105 15.6974C15.3912 15.5832 15.2618 15.3388 15.2858 14.9897C15.336 14.2634 15.371 13.5359 15.3977 12.8084C15.4846 10.4503 15.5623 8.09186 15.6515 5.73379C15.6717 5.49905 15.709 5.26607 15.7631 5.03673C15.8219 4.72192 16.0059 4.53941 16.3359 4.54004C16.6773 4.54067 16.8339 4.76323 16.8929 5.06009C16.9409 5.29082 16.9664 5.52568 16.9689 5.76138C16.9667 8.29293 16.9588 10.8245 16.9452 13.3562C16.9433 13.6957 16.8863 14.035 16.8452 14.4795Z" fill="#101010"/>
</g>
<defs>
<clipPath id="clip0_33_134">
<rect width="31" height="30" fill="white"/>
</clipPath>
</defs>
</svg>
