<svg width="20" height="18" viewBox="0 0 20 18" fill="none" xmlns="http://www.w3.org/2000/svg">
<g clip-path="url(#clip0_83_43)">
<path d="M12.3878 17.7858C10.5325 17.7858 8.67719 17.7769 6.82205 17.7887C5.33053 17.7981 3.83967 17.8405 2.34831 17.8507C1.92874 17.8507 1.50974 17.8197 1.09484 17.7584C0.201113 17.6322 -0.154478 17.1121 0.143149 16.2729C0.346672 15.7109 0.612639 15.1725 0.936212 14.6677C2.30714 12.5057 4.30187 11.1018 6.69247 10.1973C7.99028 9.69609 9.36964 9.42942 10.7641 9.41011C12.8488 9.3923 14.768 9.91216 16.4068 11.2633C17.5257 12.1731 18.4401 13.3012 19.0921 14.5759C19.2736 14.9323 19.4781 15.2802 19.6235 15.6505C19.7631 15.9923 19.8607 16.3493 19.9142 16.7137C19.9858 17.2598 19.6762 17.6219 19.1213 17.6905C18.7342 17.7422 18.3442 17.7709 17.9535 17.7766C16.0983 17.7849 14.2429 17.7805 12.3878 17.7805V17.7858ZM18.4828 16.4531C18.49 16.395 18.4894 16.3362 18.481 16.2783C17.8901 14.7705 17.0735 13.4078 15.812 12.3404C14.8388 11.5169 13.7471 10.9243 12.4503 10.7635C10.956 10.5784 9.47532 10.6172 8.01476 11.0216C5.25154 11.7864 3.04687 13.2922 1.53713 15.7196C1.36535 15.9957 1.22899 16.293 1.07103 16.5894C1.11903 16.6152 1.16913 16.6371 1.22078 16.6549C1.73773 16.7665 2.25324 16.7008 2.77459 16.6722C3.85807 16.6125 4.94452 16.5869 6.02986 16.5814C9.58066 16.5634 13.1315 16.5648 16.6824 16.5481C17.2734 16.545 17.8635 16.4871 18.483 16.4531H18.4828Z" fill="black"/>
<path d="M10.3631 0.0583769C11.7925 0.0241688 12.9867 0.694497 13.8934 1.91275C14.1071 2.19998 14.365 2.46666 14.5211 2.78169C14.8699 3.48582 15.1589 4.20918 14.9735 5.031C14.7994 5.80273 14.5725 6.54584 14.0667 7.1784C13.1673 8.30202 12.0206 8.99671 10.5551 9.16942C9.23596 9.32498 7.98166 9.13296 6.81056 8.52313C5.60437 7.89508 4.9181 6.87876 4.66895 5.57294C4.29395 3.60718 5.34065 1.84418 6.99218 0.906825C7.99158 0.339437 9.07079 0.0534662 10.3631 0.0583769ZM13.4951 4.05214C13.5606 3.55658 13.3588 3.16081 13.046 2.80017C12.9239 2.65943 12.8136 2.50844 12.6866 2.37235C12.2267 1.87979 11.7024 1.49011 11.0049 1.38699C10.0271 1.228 9.02334 1.35728 8.1204 1.75852C6.99175 2.26848 6.1498 3.04595 5.95582 4.3387C5.72955 5.84676 6.52165 7.19636 7.93038 7.6419C8.77452 7.90113 9.66588 7.9773 10.5429 7.86513C11.7418 7.7303 13.1531 6.51944 13.3437 5.27663C13.406 4.87013 13.4453 4.46015 13.4951 4.05173V4.05214Z" fill="black"/>
</g>
<defs>
<clipPath id="clip0_83_43">
<rect width="20" height="17.8947" fill="white"/>
</clipPath>
</defs>
</svg>
