<svg width="20" height="20" viewBox="0 0 20 20" fill="none" xmlns="http://www.w3.org/2000/svg">
<path d="M3.73047 4.06276H16.2305C16.3765 4.06269 16.5224 4.07196 16.6672 4.0905C16.6181 3.74588 16.4997 3.41477 16.3192 3.11713C16.1387 2.8195 15.8998 2.5615 15.6168 2.3587C15.3339 2.1559 15.0129 2.01249 14.673 1.93713C14.3332 1.86176 13.9816 1.856 13.6395 1.92018L3.35938 3.67526H3.34766C2.70237 3.79866 2.12854 4.16375 1.74336 4.69596C2.32367 4.2832 3.01834 4.06184 3.73047 4.06276ZM16.2305 5.00026H3.73047C3.06765 5.00098 2.43219 5.26461 1.9635 5.73329C1.49482 6.20198 1.23119 6.83744 1.23047 7.50026V15.0003C1.23119 15.6631 1.49482 16.2985 1.9635 16.7672C2.43219 17.2359 3.06765 17.4995 3.73047 17.5003H16.2305C16.8933 17.4995 17.5288 17.2359 17.9974 16.7672C18.4661 16.2985 18.7297 15.6631 18.7305 15.0003V7.50026C18.7297 6.83744 18.4661 6.20198 17.9974 5.73329C17.5288 5.26461 16.8933 5.00098 16.2305 5.00026ZM14.375 12.5003C14.1278 12.5003 13.8861 12.4269 13.6805 12.2896C13.475 12.1522 13.3148 11.957 13.2202 11.7286C13.1255 11.5002 13.1008 11.2489 13.149 11.0064C13.1972 10.7639 13.3163 10.5412 13.4911 10.3664C13.6659 10.1916 13.8887 10.0725 14.1311 10.0243C14.3736 9.97605 14.6249 10.0008 14.8534 10.0954C15.0818 10.19 15.277 10.3502 15.4143 10.5558C15.5517 10.7614 15.625 11.003 15.625 11.2503C15.625 11.5818 15.4933 11.8997 15.2589 12.1341C15.0245 12.3686 14.7065 12.5003 14.375 12.5003Z" fill="#323232"/>
<path d="M1.25 10.1367V6.25C1.25 5.40352 1.71875 3.98437 3.3457 3.67695C4.72656 3.41797 6.09375 3.41797 6.09375 3.41797C6.09375 3.41797 6.99219 4.04297 6.25 4.04297C5.50781 4.04297 5.52734 5 6.25 5C6.97266 5 6.25 5.91797 6.25 5.91797L3.33984 9.21875L1.25 10.1367Z" fill="#323232"/>
</svg>
